<svg width="251" height="304" viewBox="0 0 251 304" fill="none" xmlns="http://www.w3.org/2000/svg">
<mask id="mask0_1260_9776" style="mask-type:alpha" maskUnits="userSpaceOnUse" x="0" y="0" width="427" height="427">
<path d="M426.5 0.5V426.033H0.5V0.5H426.5Z" fill="#D9D9D9" stroke="black"/>
</mask>
<g mask="url(#mask0_1260_9776)">
<path d="M335.87 243.739C354.482 254.237 373.496 264.296 392.936 273.966L305.514 415.309C300.66 404.008 294.836 391.269 288.04 377.117C281.244 362.966 273.88 348.888 265.948 334.907C258.015 320.902 249.515 307.603 240.446 294.937C231.377 282.296 222.308 271.627 213.263 262.981C204.526 271.627 196.427 282.198 188.969 294.694C181.534 307.164 174.904 320.415 169.079 334.395C163.23 348.376 158.21 362.455 154.019 376.606C149.804 390.757 146.561 403.667 144.311 415.309L42.8248 304.923C58.0265 292.623 72.6835 279.543 86.7485 265.709C100.837 251.898 114.026 237.333 126.339 222.012C107.562 220.015 88.5244 218.261 69.2738 216.776C50.0231 215.265 30.6777 214.194 11.2377 213.512L69.037 49.1752C80.0475 66.152 93.4732 82.6417 109.338 98.6199C125.202 114.622 141.233 128.433 157.405 140.1C155.464 120.444 152.314 100.885 147.934 81.3995C143.577 61.9139 138.486 43.0129 132.638 24.6965L285.601 11.2271C276.532 31.1998 269.428 52.9262 264.243 76.4063C259.057 99.8864 255.174 122.441 252.593 144.094C271.869 131.294 289.993 116.743 306.746 100.617C323.723 84.3223 339.185 67.1507 353.108 49.1752L415.762 190.032C393.409 190.714 370.844 193.028 348.017 197.022C325.191 201.041 302.768 205.523 280.747 210.516C298.885 222.183 317.259 233.241 335.87 243.739Z" fill="white"/>
</g>
</svg>
