<svg width="60" height="60" viewBox="0 0 60 60" fill="none" xmlns="http://www.w3.org/2000/svg">
<circle cx="30" cy="30" r="30" fill="#2041F4"/>
<mask id="mask0_831_2881" style="mask-type:alpha" maskUnits="userSpaceOnUse" x="13" y="12" width="35" height="35">
<path d="M13 12H48V47H13V12Z" fill="#D9D9D9"/>
</mask>
<g mask="url(#mask0_831_2881)">
<path d="M40.5292 32.0006C42.0547 32.862 43.6132 33.6874 45.2066 34.4809L38.041 46.0791C37.6431 45.1517 37.1656 44.1064 36.6086 42.9452C36.0516 41.784 35.448 40.6288 34.7978 39.4815C34.1476 38.3323 33.4508 37.241 32.7075 36.2017C31.9641 35.1644 31.2208 34.289 30.4794 33.5795C29.7632 34.289 29.0994 35.1564 28.488 36.1817C27.8786 37.2051 27.3352 38.2923 26.8577 39.4396C26.3783 40.5868 25.9669 41.742 25.6233 42.9032C25.2779 44.0644 25.012 45.1237 24.8276 46.0791L16.509 37.0212C17.7551 36.0119 18.9565 34.9386 20.1093 33.8033C21.2641 32.6701 22.3452 31.4749 23.3545 30.2178C21.8154 30.0539 20.2549 29.91 18.677 29.788C17.0991 29.6641 15.5134 29.5762 13.9199 29.5202L18.6576 16.0353C19.5601 17.4284 20.6605 18.7814 21.9609 20.0926C23.2613 21.4057 24.5753 22.5389 25.9009 23.4963C25.7417 21.8834 25.4836 20.2784 25.1245 18.6795C24.7674 17.0806 24.3501 15.5296 23.8707 14.0266L36.4087 12.9214C35.6654 14.5603 35.0831 16.3431 34.658 18.2698C34.233 20.1965 33.9147 22.0473 33.7031 23.8241C35.2832 22.7737 36.7687 21.5797 38.1419 20.2565C39.5335 18.9194 40.8009 17.5103 41.9421 16.0353L47.0776 27.5935C45.2455 27.6495 43.3958 27.8394 41.5248 28.1671C39.6538 28.4969 37.8158 28.8647 36.0108 29.2744C37.4975 30.2317 39.0036 31.1391 40.5292 32.0006Z" fill="white"/>
</g>
</svg>
