<svg width="36" height="36" viewBox="0 0 36 36" fill="none" xmlns="http://www.w3.org/2000/svg">
<path d="M29.8087 6.4618L26.8027 26.1695C26.5837 27.5772 25.8166 28.8411 24.6689 29.6851C23.5211 30.5291 22.0861 30.8846 20.6771 30.674L3.1929 28.0072C2.89838 27.9613 2.63398 27.8008 2.45744 27.5606C2.28091 27.3204 2.20659 27.0201 2.25072 26.7253L5.89797 2.81455C5.94373 2.51992 6.10426 2.25538 6.34446 2.07873C6.58466 1.90208 6.88502 1.82768 7.1799 1.8718L28.866 5.18042C29.1605 5.22632 29.4249 5.3869 29.6014 5.62709C29.778 5.86728 29.8523 6.16756 29.8082 6.46236L29.8087 6.4618Z" fill="#29B6F6"/>
<path d="M31.498 6.13293L34.0725 25.902C34.2523 27.3153 33.8656 28.7423 32.9967 29.8714C32.1278 31.0005 30.8475 31.7399 29.4353 31.9281L11.8976 34.2118C11.6018 34.2504 11.3028 34.1699 11.0663 33.9881C10.8298 33.8062 10.6752 33.5379 10.6365 33.2421L7.51296 9.25706C7.47527 8.9613 7.55617 8.66265 7.73798 8.42635C7.91979 8.19005 8.18774 8.03531 8.48327 7.99593L30.2368 5.16262C30.5326 5.12493 30.8312 5.20583 31.0675 5.38764C31.3038 5.56945 31.4586 5.83739 31.498 6.13293Z" fill="#FFD740"/>
<path d="M34.0693 25.902L33.7599 23.5327C33.635 24.7353 30.4749 24.4181 29.0687 25.1195C28.6182 25.2959 28.2243 25.5917 27.9294 25.9752C27.6344 26.3586 27.4496 26.8152 27.3947 27.2958C27.1517 29.3889 27.929 31.4865 26.957 32.2503L29.432 31.928C32.0387 31.5888 34.4085 28.5086 34.0693 25.902Z" fill="#F9C112"/>
<path d="M26.4965 5.52029L27.8004 4.21641C27.8744 4.1424 27.9331 4.05453 27.9732 3.95782C28.0132 3.86111 28.0338 3.75746 28.0338 3.65279C28.0338 3.54811 28.0132 3.44446 27.9732 3.34775C27.9331 3.25105 27.8744 3.16318 27.8004 3.08916L26.6737 1.96247C26.5997 1.88846 26.5118 1.82974 26.4151 1.78968C26.3184 1.74962 26.2147 1.729 26.1101 1.729C26.0054 1.729 25.9017 1.74962 25.805 1.78968C25.7083 1.82974 25.6205 1.88846 25.5464 1.96247L24.2836 3.22529C23.8606 3.13178 23.4202 3.154 23.0087 3.28961C22.5972 3.42522 22.2299 3.66921 21.9453 3.99591L25.7669 7.81698C26.0725 7.52683 26.2996 7.16407 26.4272 6.76249C26.5548 6.36091 26.5786 5.93357 26.4965 5.52029Z" fill="#E53935"/>
<path d="M34.6328 25.83L32.0565 6.05809C31.9963 5.61595 31.764 5.21545 31.4101 4.94369C31.0561 4.67193 30.6092 4.55087 30.1665 4.60684L29.3003 4.71934C28.9657 4.62284 28.623 4.55695 28.2765 4.52246L28.263 4.53653C28.4893 4.27864 28.6086 3.94416 28.5967 3.60132C28.5848 3.25847 28.4425 2.93308 28.1989 2.69153L27.0728 1.56484C26.8139 1.31748 26.4696 1.17944 26.1115 1.17944C25.7534 1.17944 25.4091 1.31748 25.1502 1.56484L24.0915 2.6229C23.642 2.57363 23.1871 2.62819 22.7619 2.78237C22.3367 2.93654 21.9526 3.18623 21.639 3.51221V3.50996L7.26717 1.31621C6.82493 1.249 6.37409 1.35987 6.01347 1.62453C5.65286 1.8892 5.4119 2.28605 5.34342 2.72809L1.69842 26.64C1.63212 27.0821 1.74335 27.5324 2.00786 27.8928C2.27236 28.2532 2.66866 28.4944 3.11029 28.5637L9.59029 29.5537L10.0797 33.3168C10.1333 33.7223 10.3322 34.0945 10.6394 34.3645C10.9466 34.6345 11.3413 34.7839 11.7503 34.785C12.009 34.785 29.064 32.5406 29.1484 32.5293C29.956 32.4693 30.7429 32.2457 31.4613 31.8721C32.1798 31.4985 32.8147 30.9827 33.3277 30.3561C33.8407 29.7295 34.2209 29.0052 34.4452 28.2271C34.6696 27.449 34.7334 26.6335 34.6328 25.83ZM24.163 3.77434C24.2553 3.79507 24.3514 3.79201 24.4422 3.76544C24.533 3.73888 24.6156 3.68968 24.6822 3.62246L25.9455 2.36021C25.9896 2.31649 26.0491 2.29195 26.1112 2.29195C26.1733 2.29195 26.2328 2.31649 26.2769 2.36021L27.4035 3.4869C27.4266 3.50798 27.4449 3.53362 27.4575 3.56219C27.4701 3.59075 27.4766 3.62163 27.4766 3.65284C27.4766 3.68405 27.4701 3.71492 27.4575 3.74349C27.4449 3.77206 27.4266 3.7977 27.4035 3.81878L26.0997 5.12265C26.0346 5.1878 25.9865 5.26793 25.9596 5.356C25.9328 5.44407 25.9279 5.5374 25.9455 5.62778C26.0396 6.08845 25.9584 6.56765 25.7177 6.97159L22.7753 4.02971C22.9767 3.89431 23.2039 3.80177 23.4426 3.75784C23.6813 3.71391 23.9265 3.71952 24.163 3.77434ZM3.27904 27.45C3.13193 27.4264 2.99997 27.346 2.91159 27.226C2.82321 27.1061 2.78549 26.9562 2.80654 26.8087L6.45717 2.89684C6.46861 2.82407 6.49427 2.75428 6.53269 2.69143C6.57111 2.62859 6.62154 2.57393 6.68108 2.53057C6.74063 2.48722 6.80814 2.45602 6.87974 2.43875C6.95135 2.42149 7.02566 2.4185 7.09842 2.42996L21.8348 4.67996L22.7292 5.57434L8.41467 7.43621C7.9718 7.49811 7.57096 7.73146 7.29847 8.08602C7.02598 8.44057 6.90364 8.88796 6.95779 9.33184L9.43842 28.3893L3.27904 27.45ZM11.1934 33.1706L8.07154 9.18559C8.05268 9.03799 8.09296 8.88892 8.18358 8.77089C8.27421 8.65287 8.40783 8.57548 8.55529 8.55559C8.58623 8.54996 16.0118 7.58471 22.1914 6.77696L20.0787 8.88971C19.5561 9.39821 20.365 10.2105 20.874 9.68509L23.857 6.70215L25.3701 8.21528C25.4766 8.32049 25.6205 8.37921 25.7702 8.37857C25.9199 8.37794 26.0632 8.31801 26.1689 8.2119C26.7307 7.6625 27.0642 6.92113 27.1026 6.13628C27.8732 6.04065 30.3803 5.7144 30.3859 5.7144C30.522 5.71578 30.653 5.76594 30.7552 5.85574C30.8574 5.94555 30.9239 6.06904 30.9428 6.20378L33.1984 23.495C33.1084 23.7763 31.809 23.9619 31.179 24.0519C27.8659 24.0575 26.2009 26.7069 26.8478 29.6544C26.9097 30.5319 26.9659 31.3644 26.7015 31.7188L11.829 33.6543C11.6809 33.6725 11.5316 33.6321 11.4128 33.5418C11.2941 33.4514 11.2153 33.3182 11.1934 33.1706ZM29.6097 31.3256C29.4668 31.3695 28.1325 31.5281 27.9559 31.5562C28.0438 30.8995 28.0494 30.2344 27.9728 29.5762C27.669 26.6962 28.1078 25.4925 31.3365 25.1662C32.0232 25.0997 32.6994 24.9505 33.3503 24.7218C33.3689 24.881 33.5303 26.0578 33.5359 26.19C33.637 27.3809 33.2909 28.5668 32.565 29.5163C31.839 30.4658 30.7854 31.1109 29.6097 31.3256ZM11.2469 16.7073C11.1061 16.7039 10.9717 16.6478 10.8701 16.5502C10.7686 16.4526 10.7073 16.3206 10.6983 16.18C10.6892 16.0395 10.7331 15.9007 10.8213 15.7909C10.9096 15.6811 11.0357 15.6083 11.1749 15.5868L29.5821 13.1895C29.7301 13.1701 29.8797 13.2104 29.998 13.3014C30.1163 13.3924 30.1936 13.5266 30.2129 13.6746C30.2323 13.8226 30.192 13.9722 30.101 14.0905C30.01 14.2088 29.8758 14.2861 29.7278 14.3055L11.3205 16.7028C11.2963 16.706 11.2713 16.7075 11.2469 16.7073ZM13.4558 11.3192L26.2853 9.64853C26.4316 9.63259 26.5784 9.67464 26.6941 9.76567C26.8097 9.8567 26.8851 9.98944 26.904 10.1354C26.923 10.2814 26.8839 10.429 26.7952 10.5465C26.7066 10.664 26.5754 10.7421 26.4299 10.764L13.6009 12.4346C13.5767 12.4379 13.5523 12.4396 13.5278 12.4397C13.387 12.4362 13.2526 12.3801 13.1511 12.2825C13.0495 12.1849 12.9882 12.0529 12.9792 11.9123C12.9702 11.7718 13.0141 11.633 13.1023 11.5232C13.1905 11.4134 13.3166 11.3406 13.4558 11.3192ZM11.7554 20.6117C11.6152 20.6073 11.4816 20.5509 11.3808 20.4533C11.28 20.3558 11.2192 20.2242 11.2103 20.0842C11.2013 19.9442 11.2449 19.8059 11.3325 19.6963C11.4201 19.5868 11.5454 19.5138 11.6839 19.4917L30.0906 17.0943C30.2375 17.077 30.3854 17.1183 30.5021 17.2092C30.6188 17.3001 30.695 17.4334 30.7142 17.5801C30.7334 17.7268 30.694 17.8752 30.6045 17.9931C30.515 18.1109 30.3828 18.1888 30.2363 18.2098L11.829 20.6072C11.8048 20.6104 11.7804 20.6121 11.7559 20.6122L11.7554 20.6117ZM12.2644 24.5165C12.1236 24.5131 11.9892 24.457 11.8877 24.3594C11.7862 24.2618 11.7249 24.1298 11.7158 23.9892C11.7068 23.8487 11.7507 23.7098 11.8389 23.6001C11.9271 23.4903 12.0532 23.4175 12.1924 23.396L30.5991 20.9987C30.6724 20.9891 30.7468 20.994 30.8182 21.0133C30.8895 21.0325 30.9564 21.0655 31.015 21.1106C31.0736 21.1556 31.1227 21.2118 31.1596 21.2758C31.1965 21.3399 31.2204 21.4105 31.2299 21.4838C31.2395 21.5571 31.2346 21.6315 31.2153 21.7029C31.1961 21.7743 31.1631 21.8411 31.118 21.8997C31.073 21.9583 31.0168 22.0074 30.9528 22.0443C30.8887 22.0812 30.8181 22.1051 30.7448 22.1147L12.3381 24.512C12.3137 24.5151 12.2891 24.5166 12.2644 24.5165ZM18.4238 27.6902C18.3237 27.698 12.864 28.4237 12.7729 28.4214C12.6321 28.4179 12.4977 28.3619 12.3962 28.2643C12.2947 28.1667 12.2333 28.0346 12.2243 27.8941C12.2153 27.7535 12.2592 27.6147 12.3474 27.5049C12.4356 27.3951 12.5617 27.3224 12.7009 27.3009L18.2792 26.5742C18.4272 26.555 18.5768 26.5954 18.695 26.6865C18.8132 26.7776 18.8903 26.9119 18.9095 27.0599C18.9287 27.2079 18.8883 27.3574 18.7972 27.4756C18.7061 27.5938 18.5718 27.671 18.4238 27.6902Z" fill="#1C1A1E"/>
</svg>
