<svg width="36" height="36" viewBox="0 0 36 36" fill="none" xmlns="http://www.w3.org/2000/svg">
<path d="M19.4005 6.76126C18.9055 6.02438 18.0505 5.60251 17.1899 5.61938C16.2955 5.63626 15.4912 6.10313 15.0299 6.86251L1.20929 29.5313C1.10241 29.7 1.09679 29.9194 1.19804 30.0938C1.29366 30.2738 1.48491 30.3863 1.68741 30.3863H34.3124C34.5205 30.3863 34.7118 30.2681 34.8074 30.0825C34.9087 29.9025 34.8974 29.6775 34.7793 29.5088L19.4005 6.76126ZM2.68866 29.2613L6.97491 22.2244C7.34616 22.2806 7.90304 22.2863 8.60054 22.0838L7.74554 23.4394C7.57679 23.7038 7.65554 24.0525 7.91991 24.2156C8.00991 24.2775 8.11679 24.3056 8.21804 24.3056C8.40366 24.3056 8.58366 24.21 8.69616 24.0413L10.5749 21.0769C11.4805 20.4075 12.493 19.3894 13.5618 17.8369C14.0905 19.89 15.5474 22.3538 18.7312 22.4719H18.9449C20.1543 22.4719 21.0318 22.0838 21.5549 21.3075C22.0162 20.6269 22.1118 19.755 22.0443 18.9225C23.3099 20.1938 25.2843 21.4988 28.0574 21.5719L33.2549 29.2613H2.68866Z" fill="white"/>
<path d="M7.39288 25.0481C7.33053 25.0084 7.26094 24.9813 7.1881 24.9686C7.11527 24.9558 7.04063 24.9576 6.96848 24.9738C6.89634 24.99 6.82811 25.0204 6.76773 25.063C6.70734 25.1057 6.65599 25.1599 6.61663 25.2225L6.23301 25.8278C6.19349 25.8902 6.16665 25.9598 6.15403 26.0326C6.1414 26.1053 6.14324 26.1799 6.15943 26.252C6.17562 26.3241 6.20585 26.3923 6.2484 26.4527C6.29094 26.5131 6.34497 26.5645 6.40738 26.604C6.4698 26.6435 6.5394 26.6704 6.61219 26.683C6.68498 26.6956 6.75954 26.6938 6.83162 26.6776C6.90371 26.6614 6.97189 26.6312 7.03229 26.5886C7.09269 26.5461 7.14411 26.492 7.18363 26.4296L7.56726 25.8244C7.60679 25.762 7.63363 25.6924 7.64626 25.6196C7.65889 25.5468 7.65706 25.4722 7.64087 25.4001C7.62467 25.328 7.59444 25.2599 7.55189 25.1995C7.50934 25.1391 7.45531 25.0876 7.39288 25.0481ZM24.971 23.2836C24.9375 23.2177 24.8914 23.1591 24.8352 23.1111C24.7791 23.0631 24.714 23.0266 24.6438 23.0037C24.5735 22.9808 24.4994 22.972 24.4258 22.9777C24.3521 22.9835 24.2803 23.0037 24.2144 23.0372C24.1486 23.0707 24.09 23.1168 24.042 23.173C23.9939 23.2291 23.9574 23.2942 23.9346 23.3644C23.9117 23.4347 23.9029 23.5088 23.9086 23.5824C23.9144 23.6561 23.9346 23.7279 23.9681 23.7938L25.2832 26.3841C25.3512 26.5164 25.4688 26.6164 25.6103 26.6622C25.7518 26.7081 25.9058 26.6959 26.0384 26.6286C26.171 26.5612 26.2715 26.444 26.318 26.3027C26.3644 26.1613 26.3529 26.0074 26.2861 25.8744L24.971 23.2836ZM24.1447 21.6574L23.891 21.1568C23.8586 21.0892 23.813 21.0289 23.7569 20.9792C23.7008 20.9296 23.6354 20.8916 23.5645 20.8676C23.4935 20.8436 23.4185 20.834 23.3438 20.8393C23.2691 20.8447 23.1962 20.8649 23.1294 20.8988C23.0626 20.9327 23.0033 20.9796 22.9549 21.0367C22.9064 21.0939 22.8699 21.1601 22.8474 21.2316C22.825 21.303 22.817 21.3782 22.824 21.4528C22.8309 21.5274 22.8527 21.5998 22.8881 21.6658L23.1418 22.1664C23.175 22.2324 23.221 22.2912 23.2771 22.3394C23.3331 22.3876 23.3981 22.4242 23.4684 22.4472C23.5386 22.4702 23.6127 22.4791 23.6864 22.4734C23.7601 22.4677 23.8319 22.4475 23.8978 22.4139C24.0307 22.3464 24.1314 22.2288 24.1777 22.0871C24.2241 21.9453 24.2122 21.7904 24.1447 21.6574Z" fill="white"/>
</svg>
