<svg width="122" height="38" viewBox="0 0 122 38" fill="none" xmlns="http://www.w3.org/2000/svg">
<mask id="mask0_1303_7363" style="mask-type:alpha" maskUnits="userSpaceOnUse" x="0" y="0" width="122" height="38">
<rect width="122" height="38" fill="#D9D9D9"/>
</mask>
<g mask="url(#mask0_1303_7363)">
<path d="M109.393 33.9391V31.198H112.178V33.9391H109.393Z" fill="#606060"/>
<path d="M103.226 34.1218C102.441 34.1218 101.716 34.0067 101.052 33.7766C100.401 33.5465 99.859 33.2622 99.4254 32.9238L100.442 31.3198C100.848 31.604 101.289 31.8409 101.763 32.0304C102.237 32.2064 102.725 32.2944 103.226 32.2944C103.714 32.2944 104.101 32.1929 104.385 31.9898C104.683 31.7868 104.832 31.5228 104.832 31.1979C104.832 30.8731 104.71 30.6362 104.466 30.4873C104.236 30.3248 103.931 30.1895 103.552 30.0812C103.172 29.9729 102.766 29.8646 102.332 29.7563C101.912 29.648 101.512 29.4924 101.133 29.2893C100.753 29.0863 100.442 28.802 100.198 28.4365C99.9539 28.071 99.8319 27.577 99.8319 26.9543C99.8319 26.0338 100.177 25.2893 100.869 24.7208C101.56 24.1387 102.488 23.8477 103.653 23.8477C104.304 23.8477 104.92 23.9357 105.503 24.1116C106.086 24.2876 106.608 24.5313 107.068 24.8426L106.032 26.4061C105.679 26.1624 105.3 25.9729 104.893 25.8375C104.487 25.7022 104.067 25.6345 103.633 25.6345C103.159 25.6345 102.779 25.7428 102.495 25.9594C102.21 26.1624 102.068 26.4264 102.068 26.7512C102.068 27.049 102.19 27.2859 102.434 27.4619C102.691 27.6243 103.01 27.7597 103.389 27.868C103.782 27.9627 104.195 28.071 104.629 28.1929C105.063 28.3147 105.469 28.4839 105.849 28.7005C106.242 28.9035 106.56 29.1878 106.804 29.5533C107.061 29.9188 107.19 30.4128 107.19 31.0355C107.19 31.6446 107.014 32.1793 106.662 32.6396C106.323 33.0998 105.855 33.4653 105.259 33.736C104.676 33.9932 103.999 34.1218 103.226 34.1218Z" fill="#606060"/>
<path d="M93.8674 34.1218C93.0815 34.1218 92.3565 34.0067 91.6925 33.7766C91.042 33.5465 90.5 33.2622 90.0663 32.9238L91.0827 31.3198C91.4892 31.604 91.9296 31.8409 92.4039 32.0304C92.8782 32.2064 93.3661 32.2944 93.8674 32.2944C94.3553 32.2944 94.7415 32.1929 95.0261 31.9898C95.3242 31.7868 95.4733 31.5228 95.4733 31.1979C95.4733 30.8731 95.3513 30.6362 95.1074 30.4873C94.877 30.3248 94.5721 30.1895 94.1927 30.0812C93.8132 29.9729 93.4067 29.8646 92.9731 29.7563C92.553 29.648 92.1532 29.4924 91.7738 29.2893C91.3944 29.0863 91.0827 28.802 90.8388 28.4365C90.5948 28.071 90.4729 27.577 90.4729 26.9543C90.4729 26.0338 90.8184 25.2893 91.5095 24.7208C92.2007 24.1387 93.1289 23.8477 94.2943 23.8477C94.9448 23.8477 95.5613 23.9357 96.144 24.1116C96.7267 24.2876 97.2485 24.5313 97.7092 24.8426L96.6725 26.4061C96.3202 26.1624 95.9408 25.9729 95.5342 25.8375C95.1277 25.7022 94.7076 25.6345 94.274 25.6345C93.7997 25.6345 93.4203 25.7428 93.1357 25.9594C92.8511 26.1624 92.7088 26.4264 92.7088 26.7512C92.7088 27.049 92.8308 27.2859 93.0747 27.4619C93.3322 27.6243 93.6506 27.7597 94.0301 27.868C94.423 27.9627 94.8364 28.071 95.27 28.1929C95.7036 28.3147 96.1102 28.4839 96.4896 28.7005C96.8826 28.9035 97.201 29.1878 97.445 29.5533C97.7024 29.9188 97.8312 30.4128 97.8312 31.0355C97.8312 31.6446 97.655 32.1793 97.3027 32.6396C96.9639 33.0998 96.4964 33.4653 95.9001 33.736C95.3174 33.9932 94.6399 34.1218 93.8674 34.1218Z" fill="#606060"/>
<path d="M84.3234 34.1421C83.3341 34.1421 82.4601 33.9323 81.7012 33.5127C80.9559 33.0795 80.3732 32.4839 79.9531 31.7259C79.533 30.9543 79.323 30.0609 79.323 29.0457V28.8426C79.323 27.8951 79.5195 27.049 79.9124 26.3045C80.3054 25.5465 80.8543 24.9509 81.5589 24.5177C82.2771 24.071 83.1037 23.8477 84.0388 23.8477C85.0416 23.8477 85.8885 24.0913 86.5796 24.5787C87.2843 25.0524 87.7992 25.7292 88.1245 26.6091C88.4497 27.489 88.5378 28.5245 88.3887 29.7157H81.0101V28.0507H87.1488L86.1121 28.9035C86.207 28.2267 86.1731 27.6582 86.0105 27.1979C85.8614 26.7242 85.6175 26.3655 85.2787 26.1218C84.9399 25.8646 84.5334 25.736 84.0591 25.736C83.5306 25.736 83.0834 25.8714 82.7175 26.1421C82.3652 26.4128 82.0942 26.7783 81.9045 27.2386C81.7283 27.6988 81.6402 28.2335 81.6402 28.8426V29.2487C81.6402 29.8037 81.7486 30.2978 81.9654 30.7309C82.1823 31.1641 82.5007 31.5025 82.9208 31.7462C83.3409 31.9898 83.8491 32.1116 84.4453 32.1116C84.9467 32.1116 85.3668 32.044 85.7056 31.9086C86.0579 31.7597 86.3764 31.5567 86.6609 31.2995L87.9822 32.6802C87.5892 33.1675 87.0742 33.533 86.4373 33.7766C85.814 34.0203 85.1093 34.1421 84.3234 34.1421Z" fill="#606060"/>
<path d="M72.519 33.9391V24.0507H74.7753V26.9137L74.4907 26.8934C74.5314 26.1489 74.6872 25.5668 74.9583 25.1472C75.2293 24.714 75.5816 24.4094 76.0152 24.2335C76.4489 24.0575 76.9232 23.9695 77.4381 23.9695H78.2512V26.2842H77.2552C76.4828 26.2842 75.8865 26.4602 75.4664 26.8122C75.0599 27.1641 74.8566 27.6785 74.8566 28.3553V33.9391H72.519Z" fill="#606060"/>
<path d="M59.9839 38V24.0507H62.1792V26.4467L61.7117 25.9188C62.0912 25.2825 62.5926 24.7817 63.2159 24.4162C63.8528 24.0372 64.5575 23.8477 65.3299 23.8477C66.2243 23.8477 67.0238 24.0575 67.7284 24.4771C68.4331 24.8968 68.9887 25.4856 69.3952 26.2436C69.8018 27.0017 70.005 27.8815 70.005 28.8832V29.0863C70.005 30.1015 69.8018 30.9881 69.3952 31.7462C68.9887 32.5042 68.4331 33.093 67.7284 33.5127C67.0373 33.9323 66.2446 34.1421 65.3502 34.1421C64.6049 34.1421 63.9273 33.9729 63.3175 33.6345C62.7077 33.2825 62.2131 32.8088 61.8337 32.2132L62.3215 31.6649V38H59.9839ZM64.964 32.0913C65.4654 32.0913 65.9194 31.9695 66.3259 31.7259C66.746 31.4822 67.0712 31.137 67.3016 30.6903C67.5455 30.2301 67.6675 29.6954 67.6675 29.0863V28.8832C67.6675 28.2605 67.5455 27.7326 67.3016 27.2995C67.0712 26.8528 66.746 26.5144 66.3259 26.2842C65.9194 26.0406 65.4654 25.9188 64.964 25.9188C64.4355 25.9188 63.9544 26.0406 63.5208 26.2842C63.1007 26.5279 62.7687 26.8798 62.5248 27.3401C62.2944 27.8003 62.1792 28.3553 62.1792 29.005C62.1792 29.6413 62.2944 30.1895 62.5248 30.6497C62.7687 31.11 63.1007 31.4687 63.5208 31.7259C63.9544 31.9695 64.4355 32.0913 64.964 32.0913Z" fill="#606060"/>
<path d="M48.1755 33.9391L51.5497 29.0051L48.2771 24.0508H51.0212L53.1352 27.5025L55.2289 24.0508H57.9323L54.6597 28.9848L57.9933 33.9391H55.2085L53.0539 30.5279L50.8993 33.9391H48.1755Z" fill="#606060"/>
<path d="M39.6169 33.9391C38.9258 33.9391 38.3566 33.7158 37.9094 33.2691C37.4758 32.8224 37.259 32.2538 37.259 31.5635V22.1016C37.259 21.4112 37.4758 20.8427 37.9094 20.396C38.3566 19.9493 38.9258 19.7259 39.6169 19.7259H46.5483V22H40.4503C40.247 22 40.0708 22.0745 39.9218 22.2234C39.7863 22.3587 39.7185 22.528 39.7185 22.731V30.934C39.7185 31.1371 39.7863 31.3131 39.9218 31.462C40.0708 31.5973 40.247 31.665 40.4503 31.665H46.5483V33.9391H39.6169ZM38.4583 27.8884V25.7158H46.1214V27.8884H38.4583Z" fill="#606060"/>
<path d="M114.154 13.2183L113.991 10.2741L118.951 4.93401H121.837L114.154 13.2183ZM112.873 14.8223V0H115.211V14.8223H112.873ZM119.114 14.8223L115.821 9.44162L117.63 7.87817L122 14.8223H119.114Z" fill="#020202"/>
<path d="M107.015 15.0254C106.026 15.0254 105.138 14.8156 104.352 14.396C103.58 13.9628 102.97 13.3672 102.523 12.6092C102.075 11.8512 101.852 10.9781 101.852 9.9899V9.76655C101.852 8.76486 102.075 7.88499 102.523 7.12696C102.983 6.36892 103.6 5.78009 104.372 5.36046C105.158 4.94083 106.039 4.73102 107.015 4.73102C107.747 4.73102 108.431 4.87992 109.068 5.17772C109.705 5.46198 110.22 5.86131 110.613 6.37569L109.19 7.81731C108.919 7.49244 108.594 7.25555 108.214 7.10665C107.848 6.95775 107.455 6.8833 107.035 6.8833C106.493 6.8833 106.005 7.00513 105.572 7.24878C105.152 7.4789 104.813 7.81054 104.555 8.24371C104.311 8.66334 104.189 9.17095 104.189 9.76655V9.9899C104.189 10.572 104.311 11.0796 104.555 11.5127C104.813 11.9459 105.158 12.2843 105.592 12.528C106.039 12.7581 106.527 12.8731 107.056 12.8731C107.462 12.8731 107.848 12.8055 108.214 12.6701C108.594 12.5212 108.939 12.2911 109.251 11.9797L110.653 13.3808C110.26 13.8951 109.739 14.3012 109.088 14.599C108.438 14.8833 107.747 15.0254 107.015 15.0254Z" fill="#020202"/>
<path d="M97.4287 14.8224V11.4924L97.1442 10.6396V8.54828C97.1442 7.9256 96.968 7.4789 96.6157 7.20817C96.2769 6.92391 95.8026 6.78178 95.1928 6.78178C94.7185 6.78178 94.2103 6.87653 93.6683 7.06604C93.1262 7.25555 92.6519 7.52628 92.2454 7.87823L91.1884 6.29447C91.6492 5.8207 92.2454 5.44168 92.9772 5.15741C93.7225 4.87315 94.5085 4.73102 95.3351 4.73102C96.1482 4.73102 96.8596 4.87315 97.4694 5.15741C98.0927 5.44168 98.5806 5.86131 98.9329 6.4163C99.2852 6.95775 99.4614 7.63457 99.4614 8.44675V11.6346C99.4614 12.176 99.4614 12.7107 99.4614 13.2386C99.475 13.753 99.4953 14.2809 99.5224 14.8224H97.4287ZM94.6033 15.0254C93.4786 15.0254 92.5774 14.7547 91.8999 14.2133C91.2223 13.6718 90.8835 12.9679 90.8835 12.1016C90.8835 11.5195 91.0394 10.9984 91.351 10.5381C91.6627 10.0779 92.1167 9.71241 92.7129 9.44168C93.3227 9.17095 94.0613 9.03559 94.9285 9.03559C96.1075 9.03559 96.9951 9.29955 97.5913 9.82746C98.2012 10.3418 98.5061 11.0254 98.5061 11.8782H97.8962C97.8962 12.8799 97.6252 13.6583 97.0832 14.2133C96.5411 14.7547 95.7145 15.0254 94.6033 15.0254ZM95.1928 13.2995C95.789 13.2995 96.2633 13.1845 96.6157 12.9544C96.968 12.7107 97.1442 12.3858 97.1442 11.9797C97.1442 11.5872 96.968 11.2759 96.6157 11.0457C96.2633 10.8021 95.789 10.6803 95.1928 10.6803C94.6101 10.6803 94.1358 10.8021 93.7699 11.0457C93.4176 11.2759 93.2414 11.5872 93.2414 11.9797C93.2414 12.3858 93.4176 12.7107 93.7699 12.9544C94.1358 13.1845 94.6101 13.2995 95.1928 13.2995Z" fill="#020202"/>
<path d="M84.0614 14.8221V4.93376H86.3177V7.7967L86.0331 7.7764C86.0738 7.0319 86.2296 6.44983 86.5006 6.0302C86.7716 5.59704 87.124 5.29247 87.5576 5.1165C87.9912 4.94053 88.4655 4.85254 88.9805 4.85254H89.7935V7.16726H88.7975C88.0251 7.16726 87.4289 7.34323 87.0088 7.69518C86.6022 8.04712 86.399 8.56151 86.399 9.23833V14.8221H84.0614Z" fill="#020202"/>
<path d="M77.1738 14.8226V1.66521H79.6943V14.8226H77.1738ZM73.1288 2.88349V0.609375H83.8003V2.88349H73.1288Z" fill="#020202"/>
<path d="M69.4165 15.0254C68.4273 15.0254 67.5532 14.8156 66.7944 14.396C66.0491 13.9628 65.4664 13.3672 65.0463 12.6092C64.6262 11.8376 64.4161 10.9442 64.4161 9.92899V9.72594C64.4161 8.7784 64.6126 7.93237 65.0056 7.18787C65.3986 6.42983 65.9474 5.83423 66.6521 5.40107C67.3703 4.95437 68.1969 4.73102 69.132 4.73102C70.1347 4.73102 70.9817 4.97467 71.6728 5.46198C72.3775 5.93576 72.8924 6.61257 73.2176 7.49244C73.5429 8.3723 73.6309 9.40784 73.4819 10.599H66.1033V8.93406H72.2419L71.2053 9.78686C71.3001 9.11004 71.2663 8.54151 71.1036 8.08127C70.9546 7.6075 70.7107 7.24878 70.3719 7.00513C70.0331 6.74794 69.6266 6.61934 69.1523 6.61934C68.6238 6.61934 68.1766 6.75471 67.8107 7.02543C67.4584 7.29616 67.1874 7.66164 66.9976 8.12188C66.8215 8.58212 66.7334 9.1168 66.7334 9.72594V10.132C66.7334 10.687 66.8418 11.1811 67.0586 11.6143C67.2754 12.0474 67.5939 12.3858 68.014 12.6295C68.4341 12.8731 68.9422 12.995 69.5385 12.995C70.0399 12.995 70.46 12.9273 70.7987 12.7919C71.1511 12.643 71.4695 12.44 71.7541 12.1828L73.0753 13.5635C72.6824 14.0508 72.1674 14.4163 71.5305 14.66C70.9072 14.9036 70.2025 15.0254 69.4165 15.0254Z" fill="#020202"/>
<path d="M53.0864 14.8224V4.93406H55.3426V7.65488H54.7125C54.8616 7.05927 55.0716 6.57197 55.3426 6.19295C55.6137 5.81393 55.9186 5.5229 56.2573 5.31985C56.6097 5.10327 56.9688 4.95437 57.3347 4.87315C57.7005 4.7784 58.0325 4.73102 58.3307 4.73102C59.4419 4.73102 60.3295 5.0965 60.9935 5.82746C61.671 6.54489 62.0098 7.58043 62.0098 8.93406V14.8224H59.6722V9.31985C59.6722 8.45352 59.4893 7.83085 59.1234 7.45183C58.7575 7.05928 58.2765 6.863 57.6802 6.863C57.2601 6.863 56.8739 6.95775 56.5216 7.14726C56.1828 7.33677 55.9118 7.62103 55.7085 8.00005C55.5188 8.36554 55.4239 8.819 55.4239 9.36046V14.8224H53.0864Z" fill="#020202"/>
<path d="M43.6415 15.1066C42.3 15.1066 41.1007 14.7953 40.0437 14.1726C38.9867 13.5499 38.1533 12.6904 37.5435 11.5939C36.9337 10.4975 36.6288 9.22506 36.6288 7.77667V7.61423C36.6288 6.16584 36.9337 4.90019 37.5435 3.81728C38.1533 2.72083 38.9867 1.86804 40.0437 1.2589C41.1007 0.636227 42.3 0.32489 43.6415 0.32489C44.9831 0.32489 46.1756 0.636227 47.2191 1.2589C48.2761 1.86804 49.1095 2.72083 49.7193 3.81728C50.3291 4.90019 50.634 6.16584 50.634 7.61423V7.77667C50.634 9.22506 50.3291 10.4975 49.7193 11.5939C49.1095 12.6904 48.2761 13.5499 47.2191 14.1726C46.1756 14.7953 44.9831 15.1066 43.6415 15.1066ZM43.6415 12.6701C44.5088 12.6701 45.2745 12.4738 45.9385 12.0812C46.6025 11.6887 47.1242 11.1269 47.5036 10.396C47.8831 9.65146 48.0728 8.77836 48.0728 7.77667V7.61423C48.0728 6.61254 47.8831 5.75298 47.5036 5.03555C47.1242 4.31812 46.6025 3.76313 45.9385 3.37058C45.2745 2.96448 44.5088 2.76144 43.6415 2.76144C42.7878 2.76144 42.0222 2.96448 41.3446 3.37058C40.6671 3.76313 40.1386 4.31812 39.7591 5.03555C39.3797 5.75298 39.19 6.61254 39.19 7.61423V7.77667C39.19 8.77836 39.3797 9.65146 39.7591 10.396C40.1386 11.1269 40.6671 11.6887 41.3446 12.0812C42.0222 12.4738 42.7878 12.6701 43.6415 12.6701Z" fill="#020202"/>
<mask id="mask1_1303_7363" style="mask-type:alpha" maskUnits="userSpaceOnUse" x="0" y="0" width="28" height="28">
<path d="M0 0.203125H27.6444V27.8173H0V0.203125Z" fill="#D9D9D9"/>
</mask>
<g mask="url(#mask1_1303_7363)">
<path d="M21.7446 15.983C22.9495 16.6626 24.1804 17.3139 25.439 17.9399L19.7793 27.0906C19.465 26.359 19.0879 25.5343 18.648 24.6181C18.208 23.7019 17.7312 22.7905 17.2177 21.8853C16.7041 20.9786 16.1538 20.1176 15.5667 19.2976C14.9796 18.4792 14.3924 17.7885 13.8068 17.2287C13.2412 17.7885 12.7169 18.4729 12.234 19.2819C11.7526 20.0892 11.3234 20.9471 10.9463 21.8522C10.5677 22.7573 10.2427 23.6688 9.97133 24.585C9.69846 25.5011 9.48844 26.3369 9.34281 27.0906L2.77249 19.9442C3.75666 19.1478 4.70557 18.301 5.61616 17.4054C6.52828 16.5113 7.38214 15.5683 8.17929 14.5764C6.96364 14.4471 5.73113 14.3336 4.48482 14.2374C3.23852 14.1396 1.98608 14.0702 0.727509 14.0261L4.46949 3.38676C5.18233 4.48586 6.05152 5.55342 7.07861 6.58786C8.1057 7.62388 9.14352 8.51798 10.1905 9.27331C10.0648 8.00076 9.86096 6.73451 9.57736 5.473C9.29529 4.21148 8.9657 2.98781 8.58706 1.80198L18.4901 0.929962C17.9029 2.22302 17.443 3.62961 17.1073 5.14973C16.7716 6.66986 16.5202 8.13006 16.3531 9.53192C17.6011 8.70319 18.7744 7.76118 19.859 6.71717C20.9581 5.66222 21.9592 4.55051 22.8606 3.38676L26.9168 12.5059C25.4697 12.5501 24.0088 12.6999 22.531 12.9585C21.0532 13.2187 19.6015 13.5089 18.1758 13.8321C19.3501 14.5874 20.5396 15.3034 21.7446 15.983Z" fill="#3655FF"/>
</g>
</g>
</svg>
