<svg width="417" height="469" viewBox="0 0 417 469" fill="none" xmlns="http://www.w3.org/2000/svg">
<mask id="mask0_1342_6" style="mask-type:alpha" maskUnits="userSpaceOnUse" x="0" y="0" width="417" height="469">
<rect width="417" height="469" fill="#D9D9D9"/>
</mask>
<g mask="url(#mask0_1342_6)">
<path d="M686 439.858C686 439.858 511.884 439.858 504.64 439.858C497.383 439.858 493.969 420.134 494.204 421.551C494.438 422.969 501.865 423.671 504.705 417.131C507.545 410.591 505.591 404.063 507.245 408.601C508.9 413.139 506.542 436.387 518.515 437.024C530.489 437.674 527.179 408.302 524.535 400.358C521.877 392.413 513.03 391.412 510.972 403.595C508.913 415.778 513.147 434.267 521.408 429.665C529.668 425.075 523.583 393.285 516.978 391.165C510.372 389.046 507.363 405.65 506.425 403.582C505.487 401.528 507.845 387.928 511.91 384.625C515.975 381.323 519.701 382.454 519.935 385.041C520.17 387.629 518.58 388.812 518.58 387.278C518.58 385.743 519.636 359.492 518.229 350.572C516.809 341.653 511.037 337.245 511.154 339.066C511.271 340.886 514.229 368.906 513.46 368.906C499.129 368.906 480.484 367.67 480.484 369.14C480.484 370.609 481.957 389.15 480.484 389.852C479.012 390.554 473.175 390.385 471.573 389.241C469.983 388.084 466.205 364.719 465.384 364.368C464.563 364.017 442.766 349.064 441.789 348.973C440.812 348.882 407.198 348.349 406.937 348.882C406.676 349.415 418.168 353.654 418.168 354.356C418.168 355.058 413.92 373.872 414.989 372.273C416.044 370.687 420.734 360.792 429.32 359.466C437.906 358.14 445.333 365.161 445.737 366.045C446.141 366.929 444.317 369.751 445.072 369.881C445.828 370.011 456.668 378.527 460.081 397.952C463.508 417.378 458.726 421.148 459.73 422.318C460.733 423.502 501.304 417.729 502.021 416.376C502.724 415.024 502.959 408.25 502.672 408.198C502.373 408.133 472.302 407.665 472.185 408.783C472.068 409.901 472.068 416.493 471.247 416.793C470.426 417.092 463.365 416.272 462.518 416.858C461.671 417.43 456.329 438.688 441.463 438.337C426.597 437.986 417.308 399.201 427.926 381.453C438.545 363.705 453.098 376.98 456.941 397.081C460.785 417.183 458.622 439.637 446.766 445.371C434.91 451.105 418.285 446.346 414.481 441.666C410.676 436.985 399.524 419.068 404.305 397.692C409.087 376.33 417.634 369.582 427.783 368.945C437.932 368.294 463.234 369.01 463.352 366.474C463.469 363.939 437.346 351.704 436.695 351.704C436.043 351.704 433.802 356.176 432.512 355.526C431.21 354.876 431.392 352.107 429.802 351.756C428.213 351.405 405.999 351.262 405.035 352.224C404.058 353.199 402.781 373.144 403.159 374.119C403.537 375.095 411.406 376.499 410.611 375.706C409.816 374.913 404.149 374.652 402.559 378.085C400.97 381.531 401.061 420.017 399.81 421.174C398.573 422.318 389.817 420.641 389.635 420.121C389.452 419.588 395.823 292.635 394.586 292.011C393.348 291.387 389.009 292.011 388.918 292.804C388.827 293.597 383.876 418.795 384.488 419.237C385.114 419.679 388.736 409.264 381.57 408.549C374.404 407.847 344.321 409.693 342.992 407.574C341.663 405.455 342.992 382.948 343.617 382.584C344.243 382.233 381.388 381.96 382.365 383.728C383.342 385.496 382.274 405.806 381.388 406.157C380.502 406.508 347.239 405.104 345.91 406.339C344.581 407.574 346.262 419.146 344.764 420.199C343.265 421.252 329.989 420.901 329.989 419.224C329.989 417.547 332.556 372.871 332.465 371.818C332.373 370.765 321.494 368.645 312.557 386.744C303.619 404.844 309.899 433.981 326.537 439.806C343.174 445.631 352.816 439.104 358.027 431.329C363.252 423.554 364.437 410.629 363.421 410.799C362.405 410.981 356.477 436.179 339.709 432.824C322.941 429.47 319.54 409.16 323.696 393.09C327.852 377.019 332.569 374.171 333.285 366.461C333.989 358.751 334.341 352.159 333.82 352.094C333.285 352.029 313.586 352.679 313.886 353.914C314.185 355.149 314.732 355.734 315.123 356.397C315.527 357.061 330.602 362.313 331.709 360.987C332.816 359.661 335.917 318.561 335.383 317.768C334.849 316.975 330.953 316.975 330.693 318.743C330.432 320.511 330.159 325.543 330.51 326.687C330.862 327.832 335.878 329.067 336.582 327.832C337.285 326.596 337.35 299.11 338.406 298.109C339.461 297.107 344.829 296.106 344.894 297.524C344.959 298.941 341.116 377.279 340.829 377.448C340.529 377.63 335.044 375.511 334.81 377.513C334.575 379.515 349.91 381.219 350.679 379.684C351.448 378.15 353.154 297.81 355.109 296.457C357.05 295.105 361.649 297.875 360.294 298.876C358.939 299.877 355.695 299.175 357.115 300.813C358.535 302.451 362.535 301.996 360.242 303.349C357.936 304.701 355.578 304.051 356.346 305C357.115 305.936 359.89 305.117 359.708 306.651C359.525 308.185 353.806 377.227 354.874 377.812C355.929 378.397 384.189 379.814 382.234 377.695C380.293 375.576 378.052 376.759 378.17 374.926C378.287 373.105 378.052 353.914 378.756 352.731C379.459 351.548 381.231 351.431 380.528 350.312C379.824 349.194 377.583 349.012 378.756 348.193C379.941 347.374 383.589 347.14 382.352 346.022C381.114 344.903 378.521 344.552 379.642 343.369C380.762 342.186 383.472 342.186 382.182 341.315C380.88 340.431 378.404 341.731 379.824 339.612C381.244 337.492 379.355 293.285 381.179 291.53C383.003 289.774 449.124 282.701 450.779 284.469C452.433 286.238 451.248 315.779 448.89 315.779C446.531 315.779 411.471 316.273 411.197 317.69C410.924 319.107 425.125 333.267 425.751 336.361C426.376 339.456 422.129 341.302 420.8 341.302C419.471 341.302 418.767 337.544 418.272 339.222C417.777 340.899 417.959 341.692 418.585 342.927C419.21 344.162 424.643 344.604 426.011 343.499C427.379 342.394 429.816 326.375 428.539 325.491C427.262 324.607 423.314 324.919 422.611 326.024C421.907 327.13 422.48 336.621 417.165 336.53C411.862 336.439 404.957 323.112 405.751 322.41C406.546 321.708 410.924 317.157 408.318 312.346C405.712 307.535 403.315 309.03 402.208 315.09C401.1 321.136 405.308 322.15 404.592 320.823C403.888 319.497 398.625 320.953 398.09 319.939C397.556 318.925 396.853 309.564 398.533 308.679C400.214 307.795 404.24 308.77 403.002 309.382C401.765 310.006 403.849 290.359 404.553 290.398C405.256 290.437 419.549 297.992 419.549 299.318C419.549 300.644 418.533 303.596 416.982 304.038C415.432 304.48 406.051 301.788 405.973 300.059C405.882 298.343 406.064 294.845 407.393 294.845C408.722 294.845 418.546 302.217 418.989 305.793C419.432 309.369 418.897 313.607 417.933 314.049C416.956 314.491 413.021 315.103 413.816 313.958C414.611 312.814 422.259 313.776 422.975 313.165C423.679 312.541 424.878 300.982 426.467 300.358C428.057 299.734 455.169 296.782 458.622 299.344C462.075 301.905 454.375 339.521 454.596 344.11C454.818 348.7 458.713 357.139 457.554 356.605C456.407 356.072 443.756 344.89 441.333 345.125C438.91 345.359 438.388 346.594 439.092 346.477C439.796 346.36 442.753 317.222 444.395 318.223C446.049 319.224 446.167 343.772 447.339 345.06C448.525 346.36 448.759 333.761 450.648 333.345C452.538 332.928 498.686 332.928 500.275 333.995C501.865 335.048 499.832 366.396 497.708 364.901C495.585 363.406 507.35 366.929 508.587 363.666C509.825 360.402 506.815 279.086 504.965 278.384C503.102 277.682 499.571 277.331 499.389 278.384C499.207 279.438 504.249 341.51 504.34 335.503C504.431 329.496 501.773 280.764 502.751 279.88C503.728 278.995 538.045 275.29 539.283 272.728C540.521 270.167 534.905 81.6874 532.652 78.4889C516.105 55.0069 442.506 -9.53588 441.528 -8.56071C440.551 -7.58555 440.825 0.618825 440.03 0.17675C439.235 -0.265324 434.193 -8.4957 432.069 -8.57372C429.946 -8.65173 417.295 -2.38468 416.67 -3.0868C416.044 -3.78892 416.044 -8.4697 416.318 -11.1221C416.578 -13.7746 431.275 -19.4175 433.177 -18.9755C435.079 -18.5334 440.655 -12.1753 439.861 -12.0843C439.066 -11.9933 431.457 -17.4672 431.366 -15.2568C431.275 -13.0465 428.89 211.826 429.242 213.581C429.594 215.337 533.993 269.374 535.231 268.854C536.469 268.334 527.974 90.6849 527.088 86.0951C526.202 81.5054 512.405 70.2065 511.688 71.9748C510.985 73.7431 517.173 252.081 514.867 251.548C512.561 251.015 497.878 244.488 497.878 241.653C497.878 238.819 497.174 58.8946 495.051 53.9538C492.927 49.0129 475.768 35.2306 476.12 37.714C476.471 40.1845 482.491 232.305 480.367 232.656C478.243 233.007 467.625 228.417 466.387 224.711C465.15 221.006 468.693 32.9422 463.912 24.2048C459.13 15.4673 439.796 3.10224 438.844 4.75352C437.906 6.40479 437.307 43.37 438.493 46.5425C439.678 49.715 525.785 116.351 526.137 120.122C526.489 123.892 438.844 53.1346 438.024 55.254C437.203 57.3733 436.669 200.163 437.724 202.283C438.779 204.402 537.511 255.253 530.971 255.253C524.43 255.253 434.714 201.815 432.356 203.219C429.998 204.636 434.806 213.816 433.164 213.933C431.522 214.05 103.484 278.995 103.211 281.648C102.937 284.3 215.479 312.112 224.769 312.112C234.058 312.112 331.201 301.346 327.488 299.396C323.774 297.446 204.509 262.314 213.004 263.9C221.499 265.486 322.797 297.277 330.536 295.859C338.275 294.442 382.339 288.084 380.215 286.147C378.091 284.209 321.468 261.781 328.191 262.132C334.914 262.483 391.706 284.378 397.374 284.378C403.041 284.378 519.988 271.662 520.522 269.543C521.056 267.424 433.815 221.513 427.457 219.042C421.086 216.572 416.422 203.804 421.034 202.621C425.646 201.437 423.392 212.684 418.168 212.424C412.943 212.164 417.282 205.182 411.263 204.74C405.243 204.298 104.774 270.661 102.65 271.961C100.527 273.262 101.465 278.436 102.416 277.136C103.354 275.836 129.138 126.87 130.193 125.011C131.248 123.151 142.753 121.656 142.753 123.593C142.753 125.531 130.284 131.889 133.463 128.625C136.642 125.362 415.862 -1.25349 418.246 0.605823C420.63 2.46513 414.259 193.987 412.409 195.834C410.559 197.68 401.791 200.852 401.53 198.2C401.27 195.547 406.572 15.9744 401.791 15.9744C397.009 15.9744 386.391 18.8869 385.596 21.7994C384.801 24.7119 386.13 200.319 382.677 203.232C379.225 206.144 367.017 207.731 365.688 205.351C364.359 202.972 370.73 32.9292 369.141 32.9292C367.551 32.9292 350.562 39.2873 350.301 40.6135C350.04 41.9397 350.301 206.69 348.177 208.004C346.054 209.33 332.777 215.155 331.983 211.176C331.188 207.197 337.846 48.8179 334.25 48.8179C330.654 48.8179 312.869 53.8497 312.609 58.6215C312.348 63.3933 310.485 213.607 306.238 214.479C301.99 215.337 285.353 224.516 284.297 221.695C283.242 218.873 293.847 68.4252 291.02 68.0741C288.193 67.7231 274.382 72.6639 273.327 75.1343C272.272 77.6047 267.308 223.112 263.412 224.867C259.517 226.623 247.491 231.577 246.423 229.106C245.367 226.636 259.868 81.8434 255.269 81.4924C250.67 81.1413 238.632 85.38 237.224 89.2677C235.804 93.1553 227.674 229.47 225.551 232.643C223.427 235.815 206.086 240.054 206.086 237.935C206.086 235.815 218.111 98.4342 216.001 98.4342C213.877 98.4342 199.728 101.971 197.239 107.614C194.751 113.257 194.412 234.398 188.744 240.405C183.077 246.412 170.7 246.763 169.631 245.697C168.576 244.644 180.953 115.389 178.478 115.389C176.002 115.389 161.136 121.045 160.081 125.284C159.026 129.522 158.661 243.942 153.71 248.882C148.759 253.823 134.597 258.062 133.542 257.009C132.486 255.956 146.987 133.41 142.74 133.41C138.492 133.41 133.19 133.761 132.121 138C131.066 142.239 122.571 257.282 115.927 260.987C109.295 264.693 101.334 242.186 82.2212 269.192C63.108 296.21 28.6079 339.651 0.999966 310.513" stroke="#020202" stroke-miterlimit="10"/>
<rect width="417" height="469" fill="url(#paint0_linear_1342_6)"/>
</g>
<defs>
<linearGradient id="paint0_linear_1342_6" x1="29.5812" y1="235" x2="410.32" y2="235" gradientUnits="userSpaceOnUse">
<stop stop-color="white"/>
<stop offset="1" stop-color="white" stop-opacity="0.1"/>
</linearGradient>
</defs>
</svg>
