<svg width="147" height="56" viewBox="0 0 147 56" fill="none" xmlns="http://www.w3.org/2000/svg">
<rect width="147" height="56" fill="#1E1E1E"/>
<path d="M43.288 41L46.904 30.44H50.264L53.88 41H51.384L48.712 32.264H48.472L45.784 41H43.288ZM45.32 38.92V37.352H52.184V38.92H45.32ZM55.1966 43.688V36.872V32.6H57.1006L57.1166 34.936L57.4046 34.952C57.5006 34.3867 57.666 33.912 57.9006 33.528C58.146 33.144 58.4606 32.856 58.8446 32.664C59.2286 32.472 59.6713 32.376 60.1726 32.376C60.9193 32.376 61.5593 32.5627 62.0926 32.936C62.626 33.2987 63.0313 33.816 63.3086 34.488C63.5966 35.1493 63.7406 35.9333 63.7406 36.84C63.7406 37.6827 63.6126 38.4347 63.3566 39.096C63.1006 39.7467 62.7166 40.264 62.2046 40.648C61.7033 41.032 61.074 41.224 60.3166 41.224C59.7833 41.224 59.33 41.1227 58.9566 40.92C58.594 40.7173 58.29 40.4347 58.0446 40.072C57.81 39.6987 57.6126 39.256 57.4526 38.744H57.1486C57.2126 39.032 57.2713 39.3253 57.3246 39.624C57.378 39.9227 57.4206 40.216 57.4526 40.504C57.4846 40.7813 57.5006 41.0533 57.5006 41.32V43.688H55.1966ZM59.5166 39.384C59.9006 39.384 60.226 39.2773 60.4926 39.064C60.7593 38.8507 60.962 38.552 61.1006 38.168C61.25 37.784 61.3246 37.3467 61.3246 36.856C61.3246 36.3227 61.25 35.8693 61.1006 35.496C60.9513 35.112 60.738 34.8133 60.4606 34.6C60.1833 34.3867 59.8526 34.28 59.4686 34.28C59.1273 34.28 58.834 34.3547 58.5886 34.504C58.3433 34.6533 58.1353 34.8507 57.9646 35.096C57.8046 35.3413 57.6873 35.608 57.6126 35.896C57.538 36.1733 57.5006 36.44 57.5006 36.696V37C57.5006 37.2027 57.5273 37.416 57.5806 37.64C57.634 37.8533 57.7193 38.0667 57.8366 38.28C57.954 38.4827 58.0926 38.6693 58.2526 38.84C58.4126 39 58.5993 39.1333 58.8126 39.24C59.026 39.336 59.2606 39.384 59.5166 39.384ZM65.3997 43.688V36.872V32.6H67.3038L67.3198 34.936L67.6078 34.952C67.7038 34.3867 67.8691 33.912 68.1038 33.528C68.3491 33.144 68.6638 32.856 69.0477 32.664C69.4318 32.472 69.8744 32.376 70.3758 32.376C71.1224 32.376 71.7624 32.5627 72.2958 32.936C72.8291 33.2987 73.2344 33.816 73.5118 34.488C73.7998 35.1493 73.9438 35.9333 73.9438 36.84C73.9438 37.6827 73.8158 38.4347 73.5598 39.096C73.3038 39.7467 72.9198 40.264 72.4078 40.648C71.9064 41.032 71.2771 41.224 70.5198 41.224C69.9864 41.224 69.5331 41.1227 69.1598 40.92C68.7971 40.7173 68.4931 40.4347 68.2478 40.072C68.0131 39.6987 67.8158 39.256 67.6558 38.744H67.3518C67.4158 39.032 67.4744 39.3253 67.5278 39.624C67.5811 39.9227 67.6238 40.216 67.6558 40.504C67.6878 40.7813 67.7038 41.0533 67.7038 41.32V43.688H65.3997ZM69.7198 39.384C70.1038 39.384 70.4291 39.2773 70.6958 39.064C70.9624 38.8507 71.1651 38.552 71.3038 38.168C71.4531 37.784 71.5278 37.3467 71.5278 36.856C71.5278 36.3227 71.4531 35.8693 71.3038 35.496C71.1544 35.112 70.9411 34.8133 70.6638 34.6C70.3864 34.3867 70.0558 34.28 69.6718 34.28C69.3304 34.28 69.0371 34.3547 68.7918 34.504C68.5464 34.6533 68.3384 34.8507 68.1678 35.096C68.0078 35.3413 67.8904 35.608 67.8158 35.896C67.7411 36.1733 67.7038 36.44 67.7038 36.696V37C67.7038 37.2027 67.7304 37.416 67.7838 37.64C67.8371 37.8533 67.9224 38.0667 68.0398 38.28C68.1571 38.4827 68.2958 38.6693 68.4557 38.84C68.6158 39 68.8024 39.1333 69.0158 39.24C69.2291 39.336 69.4638 39.384 69.7198 39.384ZM83.4824 41.224C82.789 41.224 82.165 41.1547 81.6104 41.016C81.0664 40.888 80.597 40.6907 80.2024 40.424C79.8184 40.1467 79.5144 39.8053 79.2904 39.4C79.077 38.984 78.9544 38.5093 78.9224 37.976L80.9384 37.32C80.9597 37.8 81.077 38.2 81.2904 38.52C81.5144 38.84 81.829 39.0747 82.2344 39.224C82.6397 39.3733 83.093 39.448 83.5944 39.448C84.0744 39.448 84.4797 39.3893 84.8104 39.272C85.141 39.1547 85.3917 39 85.5624 38.808C85.733 38.6053 85.8184 38.3867 85.8184 38.152C85.8184 37.8747 85.7117 37.6507 85.4984 37.48C85.285 37.3093 84.9917 37.1653 84.6184 37.048C84.2557 36.9307 83.8397 36.8187 83.3704 36.712C82.8477 36.5947 82.3304 36.4613 81.8184 36.312C81.317 36.1627 80.8584 35.9707 80.4424 35.736C80.037 35.5013 79.7117 35.1973 79.4664 34.824C79.2317 34.4507 79.1144 33.9813 79.1144 33.416C79.1144 32.7653 79.2744 32.2053 79.5944 31.736C79.925 31.256 80.405 30.8827 81.0344 30.616C81.6637 30.3493 82.421 30.216 83.3064 30.216C84.2024 30.216 84.965 30.3493 85.5944 30.616C86.2344 30.872 86.7304 31.24 87.0824 31.72C87.4344 32.1893 87.6264 32.7493 87.6584 33.4L85.5784 33.976C85.5784 33.6453 85.525 33.3573 85.4184 33.112C85.3117 32.8667 85.1624 32.664 84.9704 32.504C84.7784 32.3333 84.5384 32.2053 84.2504 32.12C83.973 32.0347 83.653 31.992 83.2904 31.992C82.8744 31.992 82.5117 32.0453 82.2024 32.152C81.9037 32.2587 81.6744 32.4027 81.5144 32.584C81.365 32.7653 81.2904 32.9787 81.2904 33.224C81.2904 33.512 81.4077 33.752 81.6424 33.944C81.8877 34.1253 82.2077 34.2747 82.6024 34.392C83.0077 34.5093 83.4504 34.6213 83.9304 34.728C84.389 34.824 84.853 34.9467 85.3224 35.096C85.8024 35.2347 86.245 35.4213 86.6504 35.656C87.0664 35.88 87.397 36.1893 87.6424 36.584C87.8984 36.968 88.0264 37.4533 88.0264 38.04C88.0264 38.68 87.8557 39.24 87.5144 39.72C87.173 40.2 86.661 40.5733 85.9784 40.84C85.3064 41.096 84.4744 41.224 83.4824 41.224ZM92.8479 41.192C91.9092 41.192 91.2159 40.9467 90.7679 40.456C90.3305 39.9547 90.1119 39.16 90.1119 38.072V34.408H88.8959L88.9279 32.6H89.7759C90.1065 32.6 90.3519 32.552 90.5119 32.456C90.6719 32.36 90.7679 32.184 90.7999 31.928L91.0079 30.728H92.3199V32.6H94.4479V34.472H92.3199V37.976C92.3199 38.36 92.4105 38.6373 92.5919 38.808C92.7732 38.9787 93.0505 39.064 93.4239 39.064C93.6265 39.064 93.8185 39.0427 93.9999 39C94.1919 38.9573 94.3572 38.888 94.4959 38.792V40.936C94.1652 41.0427 93.8612 41.112 93.5839 41.144C93.3065 41.176 93.0612 41.192 92.8479 41.192ZM99.8328 41.224C98.9901 41.224 98.2488 41.0587 97.6088 40.728C96.9688 40.3867 96.4674 39.8907 96.1048 39.24C95.7421 38.5787 95.5608 37.7573 95.5608 36.776C95.5608 35.7947 95.7421 34.9787 96.1048 34.328C96.4781 33.6773 96.9848 33.192 97.6248 32.872C98.2754 32.5413 99.0114 32.376 99.8328 32.376C100.675 32.376 101.417 32.5413 102.057 32.872C102.707 33.2027 103.214 33.6987 103.577 34.36C103.95 35.0107 104.137 35.8267 104.137 36.808C104.137 37.8 103.945 38.6267 103.561 39.288C103.187 39.9387 102.675 40.424 102.025 40.744C101.385 41.064 100.654 41.224 99.8328 41.224ZM99.9128 39.512C100.329 39.512 100.675 39.416 100.953 39.224C101.241 39.032 101.454 38.744 101.593 38.36C101.742 37.9653 101.817 37.4907 101.817 36.936C101.817 36.3493 101.737 35.8533 101.577 35.448C101.427 35.032 101.203 34.7173 100.905 34.504C100.606 34.28 100.227 34.168 99.7688 34.168C99.3741 34.168 99.0328 34.264 98.7448 34.456C98.4568 34.6373 98.2381 34.9253 98.0888 35.32C97.9394 35.704 97.8648 36.1787 97.8648 36.744C97.8648 37.6507 98.0461 38.3387 98.4088 38.808C98.7714 39.2773 99.2728 39.512 99.9128 39.512ZM105.775 41V36.936V32.6H107.679L107.695 35.464H107.999C108.084 34.7493 108.228 34.168 108.431 33.72C108.644 33.272 108.937 32.9413 109.311 32.728C109.684 32.5147 110.148 32.408 110.703 32.408C110.799 32.408 110.9 32.4133 111.007 32.424C111.124 32.424 111.257 32.44 111.407 32.472L111.311 34.92C111.151 34.8453 110.975 34.792 110.783 34.76C110.591 34.728 110.42 34.712 110.271 34.712C109.855 34.712 109.497 34.808 109.199 35C108.9 35.192 108.655 35.4693 108.463 35.832C108.281 36.184 108.159 36.616 108.095 37.128V41H105.775ZM116.569 41.224C115.876 41.224 115.257 41.128 114.713 40.936C114.18 40.744 113.727 40.4667 113.353 40.104C112.98 39.7413 112.692 39.2933 112.489 38.76C112.297 38.2267 112.201 37.624 112.201 36.952C112.201 36.2907 112.292 35.6827 112.473 35.128C112.665 34.5627 112.943 34.0773 113.305 33.672C113.668 33.256 114.111 32.936 114.633 32.712C115.156 32.488 115.748 32.376 116.409 32.376C117.049 32.376 117.62 32.4827 118.121 32.696C118.623 32.8987 119.039 33.208 119.369 33.624C119.711 34.04 119.956 34.552 120.105 35.16C120.265 35.7573 120.324 36.4453 120.281 37.224L113.689 37.288V36.024L118.953 35.976L118.137 36.616C118.212 36.0507 118.175 35.5867 118.025 35.224C117.876 34.8613 117.657 34.5947 117.369 34.424C117.092 34.2533 116.783 34.168 116.441 34.168C116.036 34.168 115.679 34.2747 115.369 34.488C115.06 34.7013 114.82 35.016 114.649 35.432C114.479 35.8373 114.393 36.328 114.393 36.904C114.393 37.8107 114.591 38.4773 114.985 38.904C115.391 39.3307 115.919 39.544 116.569 39.544C116.868 39.544 117.119 39.5067 117.321 39.432C117.535 39.3467 117.705 39.24 117.833 39.112C117.972 38.984 118.079 38.84 118.153 38.68C118.239 38.52 118.308 38.36 118.361 38.2L120.361 38.632C120.265 39.0267 120.121 39.384 119.929 39.704C119.748 40.0133 119.503 40.2853 119.193 40.52C118.884 40.744 118.511 40.9147 118.073 41.032C117.647 41.16 117.145 41.224 116.569 41.224Z" fill="white"/>
<path d="M91.0841 21.9997C90.6361 21.9997 90.2278 21.8872 89.8592 21.6623C89.4979 21.4373 89.2124 21.1145 89.0028 20.6936C88.7933 20.2728 88.6885 19.7685 88.6885 19.1807C88.6885 18.5712 88.8005 18.0561 89.0245 17.6352C89.2485 17.2144 89.5484 16.8951 89.9242 16.6774C90.3 16.4525 90.7119 16.34 91.16 16.34C91.6225 16.34 92.0127 16.467 92.3307 16.721C92.6487 16.9749 92.8619 17.3051 92.9703 17.7114L92.8402 17.8311V14H94.0001V21.8908H92.9703L92.8836 20.4106L93.0353 20.4215C92.9847 20.748 92.8655 21.031 92.6776 21.2705C92.4897 21.5026 92.2548 21.684 91.973 21.8147C91.6984 21.938 91.4021 21.9997 91.0841 21.9997ZM91.3334 21.0637C91.6442 21.0637 91.9116 20.9838 92.1356 20.8242C92.3596 20.6646 92.5331 20.4397 92.6559 20.1494C92.7788 19.8592 92.8402 19.5109 92.8402 19.1046C92.8402 18.7272 92.7788 18.4044 92.6559 18.1359C92.5331 17.8602 92.3596 17.6497 92.1356 17.5046C91.9188 17.3595 91.6659 17.2869 91.3768 17.2869C90.8926 17.2869 90.5168 17.4538 90.2494 17.7876C89.982 18.1214 89.8484 18.5821 89.8484 19.1699C89.8484 19.7576 89.9784 20.222 90.2386 20.563C90.4988 20.8968 90.8637 21.0637 91.3334 21.0637Z" fill="white"/>
<path d="M85.9637 18.3969C85.9637 18.0341 85.8625 17.7548 85.6602 17.5588C85.4651 17.3557 85.1941 17.2541 84.8472 17.2541C84.522 17.2541 84.2438 17.3303 84.0125 17.4827C83.7813 17.635 83.6114 17.8817 83.503 18.2228L82.5274 17.8092C82.6647 17.3666 82.9321 17.011 83.3296 16.7425C83.7343 16.4741 84.2546 16.3398 84.8906 16.3398C85.3242 16.3398 85.7072 16.4124 86.0396 16.5575C86.372 16.6954 86.6322 16.9058 86.8201 17.1888C87.0152 17.4718 87.1128 17.8346 87.1128 18.2772V20.7043C87.1128 20.9728 87.2465 21.107 87.5138 21.107C87.6439 21.107 87.7704 21.0889 87.8932 21.0526L87.8282 21.858C87.662 21.9378 87.4524 21.9777 87.1995 21.9777C86.9682 21.9777 86.7587 21.9378 86.5708 21.858C86.3901 21.7709 86.2456 21.6439 86.1372 21.4771C86.036 21.3029 85.9854 21.0889 85.9854 20.8349V20.7587L86.2239 20.7478C86.1588 21.0308 86.0251 21.2666 85.8228 21.4553C85.6205 21.6367 85.3856 21.7745 85.1182 21.8689C84.8508 21.9559 84.5798 21.9995 84.3052 21.9995C83.9655 21.9995 83.6584 21.9451 83.3838 21.8362C83.1164 21.7274 82.9032 21.5641 82.7442 21.3464C82.5925 21.1215 82.5166 20.8458 82.5166 20.5193C82.5166 20.1129 82.6467 19.7792 82.9068 19.5179C83.1742 19.2567 83.55 19.079 84.0342 18.9846L86.1372 18.571L86.1263 19.3873L84.5979 19.703C84.2944 19.761 84.0667 19.8445 83.915 19.9533C83.7632 20.0621 83.6873 20.2218 83.6873 20.4322C83.6873 20.6354 83.7632 20.7986 83.915 20.922C84.0739 21.0381 84.2835 21.0961 84.5437 21.0961C84.7243 21.0961 84.8978 21.0743 85.064 21.0308C85.2374 20.9873 85.3928 20.9183 85.5301 20.824C85.6674 20.7224 85.7722 20.5955 85.8445 20.4431C85.924 20.2835 85.9637 20.0948 85.9637 19.8771V18.3969Z" fill="white"/>
<path d="M78.6943 16.3398C79.2218 16.3398 79.6879 16.4523 80.0926 16.6772C80.4973 16.9022 80.8117 17.2287 81.0357 17.6568C81.267 18.0776 81.3826 18.5819 81.3826 19.1697C81.3826 19.7574 81.267 20.2653 81.0357 20.6934C80.8117 21.1143 80.4973 21.4371 80.0926 21.6621C79.6879 21.887 79.2218 21.9995 78.6943 21.9995C78.1667 21.9995 77.7006 21.887 77.2959 21.6621C76.8912 21.4371 76.5733 21.1143 76.342 20.6934C76.1107 20.2653 75.9951 19.7574 75.9951 19.1697C75.9951 18.5819 76.1107 18.0776 76.342 17.6568C76.5733 17.2287 76.8912 16.9022 77.2959 16.6772C77.7006 16.4523 78.1667 16.3398 78.6943 16.3398ZM78.6943 17.2541C78.3691 17.2541 78.0909 17.3303 77.8596 17.4827C77.6356 17.6278 77.4621 17.8418 77.3393 18.1248C77.2164 18.4078 77.155 18.7561 77.155 19.1697C77.155 19.576 77.2164 19.9243 77.3393 20.2145C77.4621 20.4975 77.6356 20.7152 77.8596 20.8676C78.0909 21.0127 78.3691 21.0852 78.6943 21.0852C79.0195 21.0852 79.2941 21.0127 79.5181 20.8676C79.7421 20.7152 79.9156 20.4975 80.0384 20.2145C80.1613 19.9243 80.2227 19.576 80.2227 19.1697C80.2227 18.7561 80.1613 18.4078 80.0384 18.1248C79.9156 17.8418 79.7421 17.6278 79.5181 17.4827C79.2941 17.3303 79.0195 17.2541 78.6943 17.2541Z" fill="white"/>
<path d="M74.092 14V20.3671C74.092 20.6356 74.139 20.8206 74.233 20.9222C74.3269 21.0238 74.4824 21.0745 74.6993 21.0745C74.8294 21.0745 74.9378 21.0673 75.0246 21.0528C75.1186 21.031 75.2342 20.9947 75.3716 20.9439L75.2415 21.8147C75.1186 21.8727 74.9776 21.9162 74.8185 21.9453C74.6595 21.9815 74.5004 21.9997 74.3414 21.9997C73.857 21.9997 73.4992 21.8763 73.2678 21.6296C73.0437 21.3757 72.9316 20.9875 72.9316 20.465V14H74.092Z" fill="white"/>
<path d="M66.2539 21.8906V16.4487H67.2837L67.3596 17.8636L67.2078 17.7112C67.309 17.3992 67.4535 17.1416 67.6414 16.9385C67.8365 16.728 68.0642 16.5757 68.3243 16.4813C68.5917 16.387 68.8736 16.3398 69.1699 16.3398C69.5529 16.3398 69.8961 16.416 70.1997 16.5684C70.5104 16.7135 70.7561 16.9348 70.9368 17.2323C71.1175 17.5298 71.2078 17.9071 71.2078 18.3643V21.8906H70.0479V18.7234C70.0479 18.1865 69.9359 17.8164 69.7119 17.6133C69.4951 17.4028 69.2205 17.2976 68.888 17.2976C68.6495 17.2976 68.4183 17.3557 68.1943 17.4718C67.9702 17.5806 67.7823 17.7584 67.6306 18.0051C67.4861 18.2518 67.4138 18.5819 67.4138 18.9955V21.8906H66.2539Z" fill="white"/>
<path d="M63.8739 16.4492H65.1314L63.3103 21.8912H62.042L60.6761 17.8532L59.3862 21.8912H58.1179L56.3076 16.4492H57.5542L58.79 20.7484L60.1341 16.4492H61.294L62.6382 20.7484L63.8739 16.4492Z" fill="white"/>
<path d="M52.9912 16.3398C53.5187 16.3398 53.9848 16.4523 54.3895 16.6772C54.7942 16.9022 55.1086 17.2287 55.3326 17.6568C55.5638 18.0776 55.6795 18.5819 55.6795 19.1697C55.6795 19.7574 55.5638 20.2653 55.3326 20.6934C55.1086 21.1143 54.7942 21.4371 54.3895 21.6621C53.9848 21.887 53.5187 21.9995 52.9912 21.9995C52.4636 21.9995 51.9975 21.887 51.5928 21.6621C51.1881 21.4371 50.8701 21.1143 50.6389 20.6934C50.4076 20.2653 50.292 19.7574 50.292 19.1697C50.292 18.5819 50.4076 18.0776 50.6389 17.6568C50.8701 17.2287 51.1881 16.9022 51.5928 16.6772C51.9975 16.4523 52.4636 16.3398 52.9912 16.3398ZM52.9912 17.2541C52.666 17.2541 52.3877 17.3303 52.1565 17.4827C51.9324 17.6278 51.759 17.8418 51.6362 18.1248C51.5133 18.4078 51.4519 18.7561 51.4519 19.1697C51.4519 19.576 51.5133 19.9243 51.6362 20.2145C51.759 20.4975 51.9324 20.7152 52.1565 20.8676C52.3877 21.0127 52.666 21.0852 52.9912 21.0852C53.3164 21.0852 53.591 21.0127 53.815 20.8676C54.039 20.7152 54.2125 20.4975 54.3353 20.2145C54.4582 19.9243 54.5196 19.576 54.5196 19.1697C54.5196 18.7561 54.4582 18.4078 54.3353 18.1248C54.2125 17.8418 54.039 17.6278 53.815 17.4827C53.591 17.3303 53.3164 17.2541 52.9912 17.2541Z" fill="white"/>
<path d="M45.5257 14.708C46.6459 14.708 47.5167 15.02 48.1382 15.644C48.7669 16.2608 49.0812 17.146 49.0812 18.2997C49.0812 19.4534 48.7669 20.3423 48.1382 20.9663C47.5167 21.583 46.6459 21.8914 45.5257 21.8914H43V14.708H45.5257ZM45.5257 20.901C46.2845 20.901 46.8627 20.676 47.2601 20.2262C47.6648 19.769 47.8672 19.1269 47.8672 18.2997C47.8672 17.4725 47.6648 16.834 47.2601 16.3841C46.8627 15.927 46.2845 15.6984 45.5257 15.6984H44.1599V20.901H45.5257Z" fill="white"/>
<path d="M29.0351 18.1755C30.647 16.0106 32.8879 16 32.8879 16C32.8879 16 33.2212 18.0354 31.6199 19.9961C29.91 22.0897 27.9666 21.7472 27.9666 21.7472C27.9666 21.7472 27.6016 20.1006 29.0351 18.1755V18.1755ZM28.1716 23.1729C29.0008 23.1729 30.5399 22.0114 32.5432 22.0114C35.9915 22.0114 37.348 24.5117 37.348 24.5117C37.348 24.5117 34.6948 25.894 34.6948 29.2481C34.6948 33.0318 38 34.3357 38 34.3357C38 34.3357 35.6896 40.9623 32.5688 40.9623C31.1355 40.9623 30.0212 39.978 28.5109 39.978C26.9719 39.978 25.4446 40.999 24.4499 40.999C21.6002 40.9991 18 34.7131 18 29.6602C18 24.6889 21.0473 22.081 23.9056 22.081C25.7637 22.081 27.2056 23.1729 28.1716 23.1729V23.1729Z" fill="white"/>
</svg>
