<svg width="10" height="10" viewBox="0 0 10 10" fill="none" xmlns="http://www.w3.org/2000/svg">
<mask id="mask0_1260_10005" style="mask-type:alpha" maskUnits="userSpaceOnUse" x="0" y="0" width="10" height="10">
<rect width="10" height="10" fill="#5956E9"/>
</mask>
<g mask="url(#mask0_1260_10005)">
<path d="M8.44558 1.52897C8.61838 1.34806 8.84834 1.24804 9.08692 1.25003C9.32551 1.25201 9.55407 1.35584 9.72436 1.53961C9.89466 1.72337 9.99337 1.9727 9.99968 2.23498C10.006 2.49725 9.91939 2.75197 9.75816 2.94537L4.86357 9.67665C4.7794 9.77633 4.67782 9.85633 4.5649 9.91186C4.45198 9.96739 4.33003 9.99731 4.20636 9.99983C4.08268 10.0023 3.95981 9.97741 3.8451 9.92652C3.73038 9.87563 3.62618 9.79982 3.53872 9.70363L0.292827 6.1343C0.202434 6.04167 0.129933 5.92998 0.0796475 5.80588C0.0293621 5.68177 0.00232279 5.54781 0.000143182 5.41196C-0.00203643 5.27612 0.0206883 5.14118 0.0669613 5.01521C0.113234 4.88923 0.182108 4.77479 0.269473 4.67872C0.356838 4.58265 0.460905 4.50692 0.575465 4.45603C0.690026 4.40515 0.812733 4.38016 0.936267 4.38256C1.0598 4.38495 1.18163 4.41469 1.29449 4.46998C1.40734 4.52528 1.50892 4.60501 1.59315 4.70441L4.16189 7.52777L8.42227 1.55864C8.42994 1.54826 8.4369 1.53835 8.44558 1.52897Z" fill="#020202"/>
</g>
</svg>
