<svg width="157" height="56" viewBox="0 0 157 56" fill="none" xmlns="http://www.w3.org/2000/svg">
<rect width="157" height="56" fill="#1E1E1E"/>
<path d="M51.344 41.224C50.48 41.224 49.7013 41.0267 49.008 40.632C48.3253 40.2267 47.7813 39.6293 47.376 38.84C46.9813 38.04 46.784 37.0373 46.784 35.832C46.784 34.9467 46.896 34.1627 47.12 33.48C47.3547 32.7867 47.6907 32.2 48.128 31.72C48.576 31.2293 49.1253 30.856 49.776 30.6C50.4267 30.344 51.1787 30.216 52.032 30.216C52.672 30.216 53.2533 30.2907 53.776 30.44C54.2987 30.5893 54.752 30.8027 55.136 31.08C55.52 31.3573 55.8187 31.6933 56.032 32.088C56.256 32.472 56.3787 32.9093 56.4 33.4L54.224 34.072C54.2027 33.624 54.0853 33.256 53.872 32.968C53.6693 32.68 53.3973 32.4667 53.056 32.328C52.7253 32.1787 52.352 32.104 51.936 32.104C51.36 32.104 50.864 32.2373 50.448 32.504C50.0427 32.76 49.7333 33.16 49.52 33.704C49.3067 34.2373 49.2 34.9147 49.2 35.736C49.2 36.3653 49.2587 36.9093 49.376 37.368C49.504 37.816 49.6907 38.1893 49.936 38.488C50.1813 38.7867 50.4747 39.0107 50.816 39.16C51.1573 39.2987 51.552 39.368 52 39.368C52.4693 39.368 52.8747 39.2933 53.216 39.144C53.568 38.984 53.8453 38.744 54.048 38.424C54.2613 38.0933 54.3787 37.6773 54.4 37.176H52.4V35.512H56.672V37.448V41H55.072L55.104 38.296H54.816C54.6453 38.936 54.416 39.4747 54.128 39.912C53.84 40.3387 53.4667 40.664 53.008 40.888C52.56 41.112 52.0053 41.224 51.344 41.224ZM62.3953 41.224C61.5526 41.224 60.8113 41.0587 60.1713 40.728C59.5313 40.3867 59.0299 39.8907 58.6673 39.24C58.3046 38.5787 58.1233 37.7573 58.1233 36.776C58.1233 35.7947 58.3046 34.9787 58.6673 34.328C59.0406 33.6773 59.5473 33.192 60.1873 32.872C60.8379 32.5413 61.5739 32.376 62.3953 32.376C63.2379 32.376 63.9793 32.5413 64.6193 32.872C65.2699 33.2027 65.7766 33.6987 66.1393 34.36C66.5126 35.0107 66.6993 35.8267 66.6993 36.808C66.6993 37.8 66.5073 38.6267 66.1233 39.288C65.7499 39.9387 65.2379 40.424 64.5873 40.744C63.9473 41.064 63.2166 41.224 62.3953 41.224ZM62.4753 39.512C62.8913 39.512 63.2379 39.416 63.5153 39.224C63.8033 39.032 64.0166 38.744 64.1553 38.36C64.3046 37.9653 64.3793 37.4907 64.3793 36.936C64.3793 36.3493 64.2993 35.8533 64.1393 35.448C63.9899 35.032 63.7659 34.7173 63.4673 34.504C63.1686 34.28 62.7899 34.168 62.3313 34.168C61.9366 34.168 61.5953 34.264 61.3073 34.456C61.0193 34.6373 60.8006 34.9253 60.6513 35.32C60.5019 35.704 60.4273 36.1787 60.4273 36.744C60.4273 37.6507 60.6086 38.3387 60.9713 38.808C61.3339 39.2773 61.8353 39.512 62.4753 39.512ZM72.1453 41.224C71.3026 41.224 70.5613 41.0587 69.9213 40.728C69.2813 40.3867 68.7799 39.8907 68.4173 39.24C68.0546 38.5787 67.8733 37.7573 67.8733 36.776C67.8733 35.7947 68.0546 34.9787 68.4173 34.328C68.7906 33.6773 69.2973 33.192 69.9373 32.872C70.5879 32.5413 71.3239 32.376 72.1453 32.376C72.9879 32.376 73.7293 32.5413 74.3693 32.872C75.0199 33.2027 75.5266 33.6987 75.8893 34.36C76.2626 35.0107 76.4493 35.8267 76.4493 36.808C76.4493 37.8 76.2573 38.6267 75.8733 39.288C75.4999 39.9387 74.9879 40.424 74.3373 40.744C73.6973 41.064 72.9666 41.224 72.1453 41.224ZM72.2253 39.512C72.6413 39.512 72.9879 39.416 73.2653 39.224C73.5533 39.032 73.7666 38.744 73.9053 38.36C74.0546 37.9653 74.1293 37.4907 74.1293 36.936C74.1293 36.3493 74.0493 35.8533 73.8893 35.448C73.7399 35.032 73.5159 34.7173 73.2173 34.504C72.9186 34.28 72.5399 34.168 72.0813 34.168C71.6866 34.168 71.3453 34.264 71.0573 34.456C70.7693 34.6373 70.5506 34.9253 70.4013 35.32C70.2519 35.704 70.1773 36.1787 70.1773 36.744C70.1773 37.6507 70.3586 38.3387 70.7213 38.808C71.0839 39.2773 71.5853 39.512 72.2253 39.512ZM81.4153 43.928C80.4979 43.928 79.7406 43.8533 79.1432 43.704C78.5566 43.5653 78.1246 43.3573 77.8473 43.08C77.5699 42.8027 77.4313 42.456 77.4313 42.04C77.4313 41.5493 77.6233 41.1493 78.0073 40.84C78.4019 40.5307 78.9779 40.344 79.7353 40.28V39.96C79.1593 39.96 78.7166 39.9013 78.4073 39.784C78.0979 39.656 77.9433 39.4373 77.9433 39.128C77.9433 38.8293 78.0926 38.5627 78.3913 38.328C78.7006 38.0933 79.2073 37.9067 79.9113 37.768V37.448C79.2499 37.4053 78.7326 37.192 78.3593 36.808C77.9859 36.424 77.7993 35.928 77.7993 35.32C77.7993 34.7867 77.9486 34.312 78.2473 33.896C78.5459 33.4693 78.9886 33.1333 79.5753 32.888C80.1726 32.632 80.9033 32.504 81.7673 32.504H86.0233V34.264L83.3833 33.896V34.264C84.0659 34.36 84.5566 34.5307 84.8553 34.776C85.1646 35.0213 85.3193 35.3627 85.3193 35.8C85.3193 36.2373 85.1753 36.6213 84.8873 36.952C84.5993 37.2827 84.1886 37.544 83.6553 37.736C83.1326 37.9173 82.5033 38.008 81.7673 38.008C81.6286 38.008 81.4793 38.0027 81.3193 37.992C81.1593 37.9813 80.8926 37.9547 80.5193 37.912C80.3166 38.0613 80.1566 38.1947 80.0393 38.312C79.9326 38.4187 79.8793 38.52 79.8793 38.616C79.8793 38.6907 79.9166 38.7547 79.9913 38.808C80.0766 38.8613 80.1833 38.8987 80.3113 38.92C80.4499 38.9413 80.5886 38.952 80.7273 38.952H83.1273C83.3406 38.952 83.6179 38.968 83.9593 39C84.3006 39.0213 84.6419 39.1013 84.9833 39.24C85.3246 39.3787 85.6126 39.6027 85.8472 39.912C86.0819 40.2107 86.1993 40.6427 86.1993 41.208C86.1993 41.8267 86.0233 42.3387 85.6713 42.744C85.3299 43.1493 84.8019 43.448 84.0873 43.64C83.3833 43.832 82.4926 43.928 81.4153 43.928ZM81.6713 42.088C82.3219 42.088 82.8286 42.0507 83.1913 41.976C83.5539 41.912 83.8099 41.8 83.9593 41.64C84.1193 41.4907 84.1993 41.2987 84.1993 41.064C84.1993 40.8507 84.1513 40.6853 84.0553 40.568C83.9699 40.4507 83.8526 40.3707 83.7033 40.328C83.5646 40.2747 83.4206 40.2427 83.2713 40.232C83.1326 40.2107 83.0099 40.2 82.9033 40.2H80.8873C80.4393 40.2427 80.1139 40.3653 79.9113 40.568C79.7193 40.76 79.6233 40.984 79.6233 41.24C79.6233 41.4747 79.6979 41.6507 79.8473 41.768C79.9966 41.8853 80.2206 41.9653 80.5193 42.008C80.8286 42.0613 81.2126 42.088 81.6713 42.088ZM81.6393 36.808C82.1513 36.808 82.5353 36.6853 82.7913 36.44C83.0473 36.184 83.1753 35.8533 83.1753 35.448C83.1753 35.0213 83.0419 34.6693 82.7753 34.392C82.5193 34.1147 82.1406 33.976 81.6393 33.976C81.1486 33.976 80.7646 34.1147 80.4873 34.392C80.2099 34.6587 80.0713 35.0053 80.0713 35.432C80.0713 35.6987 80.1299 35.9387 80.2473 36.152C80.3753 36.3547 80.5566 36.5147 80.7913 36.632C81.0259 36.7493 81.3086 36.808 81.6393 36.808ZM87.6966 41V29.56H89.9686V41H87.6966ZM95.9913 41.224C95.2979 41.224 94.6793 41.128 94.1353 40.936C93.6019 40.744 93.1486 40.4667 92.7753 40.104C92.4019 39.7413 92.1139 39.2933 91.9113 38.76C91.7193 38.2267 91.6233 37.624 91.6233 36.952C91.6233 36.2907 91.7139 35.6827 91.8953 35.128C92.0873 34.5627 92.3646 34.0773 92.7273 33.672C93.0899 33.256 93.5326 32.936 94.0553 32.712C94.5779 32.488 95.1699 32.376 95.8313 32.376C96.4713 32.376 97.0419 32.4827 97.5433 32.696C98.0446 32.8987 98.4606 33.208 98.7913 33.624C99.1326 34.04 99.3779 34.552 99.5273 35.16C99.6873 35.7573 99.7459 36.4453 99.7033 37.224L93.1113 37.288V36.024L98.3753 35.976L97.5593 36.616C97.6339 36.0507 97.5966 35.5867 97.4473 35.224C97.2979 34.8613 97.0793 34.5947 96.7913 34.424C96.5139 34.2533 96.2046 34.168 95.8633 34.168C95.4579 34.168 95.1006 34.2747 94.7913 34.488C94.4819 34.7013 94.2419 35.016 94.0713 35.432C93.9006 35.8373 93.8153 36.328 93.8153 36.904C93.8153 37.8107 94.0126 38.4773 94.4073 38.904C94.8126 39.3307 95.3406 39.544 95.9913 39.544C96.2899 39.544 96.5406 39.5067 96.7433 39.432C96.9566 39.3467 97.1273 39.24 97.2553 39.112C97.3939 38.984 97.5006 38.84 97.5753 38.68C97.6606 38.52 97.7299 38.36 97.7833 38.2L99.7833 38.632C99.6873 39.0267 99.5433 39.384 99.3513 39.704C99.1699 40.0133 98.9246 40.2853 98.6153 40.52C98.3059 40.744 97.9326 40.9147 97.4953 41.032C97.0686 41.16 96.5673 41.224 95.9913 41.224ZM106.8 38.024V36.216H109.216C109.984 36.216 110.56 36.0613 110.944 35.752C111.328 35.432 111.52 34.9093 111.52 34.184C111.52 33.544 111.338 33.0587 110.976 32.728C110.624 32.3867 110.074 32.216 109.328 32.216H106.8V30.44H109.392C110.074 30.44 110.688 30.52 111.232 30.68C111.786 30.84 112.256 31.08 112.64 31.4C113.034 31.7093 113.333 32.104 113.536 32.584C113.738 33.0533 113.84 33.608 113.84 34.248C113.84 35.0693 113.653 35.7627 113.28 36.328C112.906 36.8827 112.352 37.304 111.616 37.592C110.89 37.88 109.984 38.024 108.896 38.024H106.8ZM105.184 41V30.44H107.488V41H105.184ZM115.384 41V29.56H117.656V41H115.384ZM121.743 41.224C121.273 41.224 120.857 41.1333 120.495 40.952C120.132 40.76 119.849 40.488 119.647 40.136C119.444 39.784 119.343 39.3467 119.343 38.824C119.343 38.3653 119.428 37.9813 119.599 37.672C119.78 37.3627 120.041 37.112 120.383 36.92C120.724 36.728 121.145 36.568 121.647 36.44C122.148 36.312 122.719 36.2 123.359 36.104C123.7 36.0507 123.977 36.0027 124.191 35.96C124.415 35.9067 124.58 35.8267 124.687 35.72C124.793 35.6027 124.847 35.4373 124.847 35.224C124.847 34.9253 124.74 34.6693 124.527 34.456C124.313 34.2427 123.977 34.136 123.519 34.136C123.209 34.136 122.921 34.1893 122.655 34.296C122.399 34.4027 122.175 34.5627 121.983 34.776C121.801 34.9893 121.668 35.2613 121.583 35.592L119.551 34.968C119.679 34.5307 119.86 34.152 120.095 33.832C120.34 33.512 120.633 33.2453 120.975 33.032C121.316 32.808 121.705 32.6427 122.143 32.536C122.58 32.4293 123.055 32.376 123.567 32.376C124.388 32.376 125.055 32.5093 125.567 32.776C126.089 33.032 126.479 33.4373 126.735 33.992C126.991 34.536 127.119 35.24 127.119 36.104V37.544C127.119 37.9173 127.124 38.296 127.135 38.68C127.156 39.064 127.177 39.4533 127.199 39.848C127.231 40.232 127.263 40.616 127.295 41H125.263C125.22 40.7333 125.177 40.4293 125.135 40.088C125.103 39.736 125.076 39.384 125.055 39.032H124.767C124.617 39.4373 124.404 39.8053 124.127 40.136C123.849 40.4667 123.508 40.7333 123.103 40.936C122.708 41.128 122.255 41.224 121.743 41.224ZM122.719 39.56C122.921 39.56 123.124 39.5227 123.327 39.448C123.54 39.3733 123.743 39.272 123.935 39.144C124.137 39.0053 124.319 38.8347 124.479 38.632C124.649 38.4293 124.788 38.2 124.895 37.944L124.863 36.6L125.231 36.68C125.039 36.8187 124.815 36.9307 124.559 37.016C124.303 37.0907 124.036 37.1493 123.759 37.192C123.492 37.2347 123.225 37.2827 122.959 37.336C122.692 37.3893 122.452 37.4587 122.239 37.544C122.036 37.6293 121.871 37.7467 121.743 37.896C121.625 38.0347 121.567 38.232 121.567 38.488C121.567 38.8187 121.673 39.08 121.887 39.272C122.1 39.464 122.377 39.56 122.719 39.56ZM132.287 43.912C131.86 43.912 131.423 43.8693 130.975 43.784C130.538 43.7093 130.122 43.5867 129.727 43.416C129.343 43.256 129.012 43.048 128.735 42.792L129.391 40.824C129.732 41.176 130.159 41.4373 130.671 41.608C131.183 41.7893 131.69 41.88 132.191 41.88C132.756 41.88 133.226 41.7627 133.599 41.528C133.983 41.304 134.271 40.9573 134.463 40.488C134.666 40.008 134.783 39.4107 134.815 38.696L134.911 37.24H134.559C134.452 37.944 134.276 38.52 134.031 38.968C133.796 39.416 133.492 39.7467 133.119 39.96C132.756 40.1627 132.324 40.264 131.823 40.264C131.215 40.264 130.703 40.1093 130.287 39.8C129.871 39.4907 129.556 39.0267 129.343 38.408C129.14 37.7893 129.039 37.0267 129.039 36.12V32.6H131.343V35.56C131.343 36.552 131.455 37.2667 131.679 37.704C131.903 38.1413 132.244 38.36 132.703 38.36C132.948 38.36 133.172 38.296 133.375 38.168C133.578 38.0293 133.748 37.832 133.887 37.576C134.036 37.32 134.148 37.0107 134.223 36.648C134.308 36.2747 134.351 35.8533 134.351 35.384V32.6H136.655V38.776C136.655 39.448 136.596 40.0613 136.479 40.616C136.362 41.16 136.186 41.6347 135.951 42.04C135.727 42.456 135.439 42.8027 135.087 43.08C134.735 43.3573 134.324 43.5653 133.855 43.704C133.396 43.8427 132.874 43.912 132.287 43.912Z" fill="white"/>
<path d="M80.9998 14.1172V21.8819H79.5932L76.7689 16.9878L76.06 15.6113H76.0489L76.0932 16.8701V21.8819H75.0078V14.1172H76.4034L79.2166 18.9995L79.9365 20.3995H79.9476L79.9033 19.129V14.1172H80.9998Z" fill="white"/>
<path d="M72.8394 14.1172V21.8819H71.6543V14.1172H72.8394Z" fill="white"/>
<path d="M66.9043 14.1172V15.1995H64.4011V21.8819H63.216V15.1995H60.7129V14.1172H66.9043Z" fill="white"/>
<path d="M54.4248 21.8819V14.1172H59.719V15.1995H55.6099V17.4348H58.8219V18.4937H55.6099V20.7995H59.8741V21.8819H54.4248Z" fill="white"/>
<path d="M49.3781 22C48.6914 22 48.097 21.8392 47.5949 21.5176C47.0928 21.1961 46.7015 20.7412 46.4209 20.1529C46.1403 19.5569 46 18.8392 46 18C46 17.1765 46.144 16.4667 46.432 15.8706C46.7273 15.2745 47.1408 14.8157 47.6724 14.4941C48.2115 14.1647 48.828 14 49.5221 14C50.2826 14 50.8955 14.149 51.3607 14.4471C51.8333 14.7451 52.2098 15.2078 52.4904 15.8353L51.3939 16.3882C51.2536 15.9569 51.021 15.6353 50.6961 15.4235C50.3786 15.2039 49.991 15.0941 49.5332 15.0941C49.0754 15.0941 48.673 15.2078 48.3259 15.4353C47.9863 15.6627 47.7204 15.9961 47.5285 16.4353C47.3365 16.8667 47.2405 17.3882 47.2405 18C47.2405 18.6196 47.3254 19.149 47.4952 19.5882C47.6651 20.0196 47.9198 20.349 48.2595 20.5765C48.6065 20.8039 49.0311 20.9176 49.5332 20.9176C49.8064 20.9176 50.0611 20.8824 50.2974 20.8118C50.5337 20.7333 50.7404 20.6235 50.9177 20.4824C51.0949 20.3333 51.2315 20.149 51.3275 19.9294C51.4308 19.702 51.4825 19.4353 51.4825 19.1294V18.9059H49.356V17.8824H52.5347V21.8824H51.6487L51.5822 20.3176L51.8037 20.4353C51.6265 20.9294 51.3312 21.3137 50.9177 21.5882C50.5115 21.8627 49.9984 22 49.3781 22Z" fill="white"/>
<path fill-rule="evenodd" clip-rule="evenodd" d="M18.4537 16.3837C18.1656 16.6857 18 17.1506 18 17.7547V39.2417C18 39.8458 18.1656 40.3107 18.4645 40.6022L18.5426 40.6665L30.8861 28.6269V28.3564L18.5318 16.3193L18.4537 16.3837V16.3837Z" fill="url(#paint0_linear_203_39)"/>
<path fill-rule="evenodd" clip-rule="evenodd" d="M34.9922 32.6552L30.875 28.638V28.357L34.9935 24.3398L35.0824 24.3937L39.9536 27.0937C41.3484 27.8606 41.3484 29.1239 39.9536 29.9014L35.0824 32.6013C35.0811 32.6013 34.9922 32.6552 34.9922 32.6552V32.6552Z" fill="url(#paint1_linear_203_39)"/>
<path fill-rule="evenodd" clip-rule="evenodd" d="M35.0808 32.6019L30.8747 28.498L18.4531 40.6139C18.9069 41.0893 19.6702 41.1431 20.5238 40.6782L35.0808 32.6019Z" fill="url(#paint2_linear_203_39)"/>
<path fill-rule="evenodd" clip-rule="evenodd" d="M35.0808 24.3957L20.5238 16.3299C19.6716 15.8545 18.9069 15.9189 18.4531 16.3942L30.8734 28.4982L35.0808 24.3957Z" fill="url(#paint3_linear_203_39)"/>
<path opacity="0.2" fill-rule="evenodd" clip-rule="evenodd" d="M34.9919 32.5156L20.5346 40.5276C19.7268 40.9807 19.0065 40.9492 18.542 40.5381L18.4639 40.6143L18.542 40.6786C19.0065 41.0884 19.7268 41.1212 20.5346 40.6681L35.0915 32.6023L34.9919 32.5156V32.5156Z" fill="black"/>
<path opacity="0.12" fill-rule="evenodd" clip-rule="evenodd" d="M39.9522 29.7614L34.9814 32.5152L35.0703 32.6019L39.9415 29.9019C40.6389 29.5132 40.9822 29.0063 40.9822 28.498C40.9378 28.9629 40.5837 29.4055 39.9522 29.7614V29.7614Z" fill="black"/>
<path opacity="0.25" fill-rule="evenodd" clip-rule="evenodd" d="M20.5244 16.47L39.9525 27.2358C40.584 27.5812 40.9381 28.0343 40.9933 28.4992C40.9933 27.9923 40.6499 27.484 39.9525 27.0953L20.5244 16.3295C19.1296 15.5521 18 16.1995 18 17.7544V17.8949C18 16.34 19.1296 15.7031 20.5244 16.47Z" fill="white"/>
<defs>
<linearGradient id="paint0_linear_203_39" x1="29.7777" y1="17.5237" x2="10.0723" y2="22.9068" gradientUnits="userSpaceOnUse">
<stop stop-color="#00A0FF"/>
<stop offset="0.007" stop-color="#00A1FF"/>
<stop offset="0.26" stop-color="#00BEFF"/>
<stop offset="0.512" stop-color="#00D2FF"/>
<stop offset="0.76" stop-color="#00DFFF"/>
<stop offset="1" stop-color="#00E3FF"/>
</linearGradient>
<linearGradient id="paint1_linear_203_39" x1="41.7686" y1="28.4981" x2="17.6607" y2="28.4981" gradientUnits="userSpaceOnUse">
<stop stop-color="#FFE000"/>
<stop offset="0.409" stop-color="#FFBD00"/>
<stop offset="0.775" stop-color="#FFA500"/>
<stop offset="1" stop-color="#FF9C00"/>
</linearGradient>
<linearGradient id="paint2_linear_203_39" x1="32.7936" y1="30.7306" x2="17.4983" y2="57.1233" gradientUnits="userSpaceOnUse">
<stop stop-color="#FF3A44"/>
<stop offset="1" stop-color="#C31162"/>
</linearGradient>
<linearGradient id="paint3_linear_203_39" x1="15.3263" y1="9.23611" x2="22.1499" y2="21.0233" gradientUnits="userSpaceOnUse">
<stop stop-color="#32A071"/>
<stop offset="0.069" stop-color="#2DA771"/>
<stop offset="0.476" stop-color="#15CF74"/>
<stop offset="0.801" stop-color="#06E775"/>
<stop offset="1" stop-color="#00F076"/>
</linearGradient>
</defs>
</svg>
