<svg width="16" height="16" viewBox="0 0 16 16" fill="none" xmlns="http://www.w3.org/2000/svg">
<rect width="16" height="16" rx="8" fill="#020202"/>
<path d="M11.6947 6.45771L7.24644 10.9083C7.17556 10.9768 7.08572 11.0123 6.99596 11.0123C6.9494 11.0124 6.90328 11.0033 6.86027 10.9854C6.81727 10.9676 6.77822 10.9414 6.7454 10.9083L4.3038 8.46675C4.16436 8.32963 4.16436 8.10515 4.3038 7.96571L5.16652 7.10059C5.29892 6.96827 5.53524 6.96827 5.66764 7.10059L6.99596 8.42891L10.3309 5.09155C10.3638 5.05862 10.4028 5.03249 10.4457 5.01465C10.4887 4.9968 10.5347 4.98759 10.5812 4.98755C10.6757 4.98755 10.7656 5.02539 10.8317 5.09155L11.6944 5.95675C11.8341 6.09619 11.8341 6.32067 11.6947 6.45771Z" fill="white"/>
</svg>
