<svg width="20" height="20" viewBox="0 0 20 20" fill="none" xmlns="http://www.w3.org/2000/svg">
<rect width="20" height="20" rx="3" fill="#3655FF"/>
<path d="M13.6301 10.9049C14.1822 11.2166 14.7462 11.5154 15.3229 11.8025L12.7296 16C12.5856 15.6644 12.4128 15.2861 12.2112 14.8658C12.0096 14.4456 11.7911 14.0275 11.5558 13.6123C11.3205 13.1964 11.0684 12.8014 10.7993 12.4253C10.5303 12.0499 10.2613 11.7331 9.99298 11.4763C9.73379 11.7331 9.49356 12.047 9.2723 12.4181C9.05174 12.7884 8.85507 13.1819 8.68228 13.5971C8.50878 14.0123 8.35987 14.4304 8.23554 14.8506C8.11051 15.2709 8.01428 15.6542 7.94755 16L4.93702 12.7219C5.38796 12.3566 5.82276 11.9682 6.23999 11.5573C6.65793 11.1472 7.04917 10.7146 7.41442 10.2597C6.85741 10.2004 6.29267 10.1483 5.72161 10.1042C5.15055 10.0593 4.57668 10.0275 4 10.0072L5.71459 5.12694C6.04121 5.6311 6.43947 6.12079 6.91009 6.5953C7.38071 7.07052 7.85624 7.48065 8.33599 7.82713C8.27839 7.2434 8.18497 6.66257 8.05502 6.08391C7.92578 5.50524 7.77476 4.94394 7.60126 4.4L12.1388 4C11.8698 4.59313 11.6591 5.23834 11.5053 5.93562C11.3514 6.63291 11.2362 7.30271 11.1597 7.94575C11.7315 7.56561 12.2691 7.1335 12.7661 6.65461C13.2697 6.17071 13.7284 5.66076 14.1414 5.12694L16 9.30995C15.3369 9.3302 14.6675 9.39892 13.9904 9.51754C13.3133 9.63689 12.6481 9.76998 11.9948 9.91826C12.5329 10.2647 13.078 10.5931 13.6301 10.9049Z" fill="white"/>
</svg>
