<svg width="193" height="198" viewBox="0 0 193 198" fill="none" xmlns="http://www.w3.org/2000/svg">
<mask id="mask0_700_360" style="mask-type:alpha" maskUnits="userSpaceOnUse" x="-46" y="0" width="239" height="238">
<path d="M-46 0H192.26V238H-46V0Z" fill="#D9D9D9"/>
</mask>
<g mask="url(#mask0_700_360)">
<path d="M141.411 136.003C151.796 141.86 162.405 147.473 173.253 152.869L124.473 231.737C121.764 225.43 118.514 218.322 114.722 210.426C110.93 202.53 106.821 194.674 102.395 186.873C97.9691 179.058 93.2259 171.638 88.1656 164.571C83.1053 157.517 78.0449 151.564 72.9978 146.739C68.1225 151.564 63.6039 157.462 59.442 164.435C55.2934 171.393 51.5939 178.787 48.3437 186.588C45.0803 194.389 42.2792 202.244 39.9407 210.141C37.5889 218.037 35.7788 225.24 34.5236 231.737L-22.1043 170.143C-13.622 163.279 -5.4436 155.981 2.40451 148.261C10.2658 140.555 17.6251 132.428 24.4955 123.879C14.0181 122.765 3.39543 121.786 -7.34618 120.957C-18.0878 120.115 -28.8822 119.517 -39.7295 119.136L-7.47829 27.4387C-1.33457 36.9116 6.15679 46.1126 15.009 55.0282C23.8613 63.9574 32.806 71.6634 41.83 78.1734C40.7466 67.2056 38.9894 56.2921 36.5451 45.4194C34.114 34.5467 31.2734 24.0002 28.01 13.7799L113.361 6.26416C108.301 17.4087 104.337 29.5317 101.444 42.6333C98.5504 55.7349 96.3836 68.32 94.9435 80.4023C105.699 73.2597 115.812 65.1407 125.16 56.1426C134.633 47.0503 143.261 37.4688 151.03 27.4387L185.989 106.035C173.517 106.415 160.926 107.706 148.189 109.935C135.452 112.178 122.94 114.678 110.653 117.465C120.774 123.975 131.026 130.145 141.411 136.003Z" fill="#F0F0F0"/>
</g>
</svg>
