<svg width="18" height="18" viewBox="0 0 18 18" fill="none" xmlns="http://www.w3.org/2000/svg">
<path d="M2.74927 8.33377C2.43861 8.33464 2.13455 8.42344 1.87226 8.58991C1.60997 8.75638 1.40017 8.99371 1.26714 9.27444C1.1341 9.55517 1.08327 9.86783 1.12051 10.1762C1.15776 10.4847 1.28156 10.7762 1.4776 11.0172L5.65672 16.1366C5.80572 16.3216 5.99672 16.4684 6.21386 16.5648C6.43099 16.6612 6.66798 16.7044 6.90515 16.6908C7.41241 16.6635 7.87037 16.3922 8.16235 15.946L16.8434 1.96516C16.8449 1.96282 16.8463 1.96051 16.8479 1.95824C16.9293 1.83317 16.9029 1.58532 16.7348 1.42962C16.6886 1.38687 16.6341 1.35402 16.5748 1.3331C16.5154 1.31218 16.4524 1.30363 16.3896 1.30799C16.3268 1.31235 16.2656 1.32951 16.2097 1.35842C16.1538 1.38734 16.1044 1.42739 16.0646 1.47611C16.0614 1.47994 16.0582 1.48372 16.0549 1.48743L7.29994 11.3793C7.26663 11.4169 7.22617 11.4476 7.18091 11.4694C7.13565 11.4913 7.0865 11.504 7.03631 11.5067C6.98611 11.5094 6.93588 11.5021 6.88853 11.4852C6.84117 11.4684 6.79764 11.4423 6.76046 11.4084L3.85485 8.76431C3.55307 8.48768 3.15865 8.33408 2.74927 8.33377Z" fill="white"/>
</svg>
