<svg width="70" height="70" viewBox="0 0 70 70" fill="none" xmlns="http://www.w3.org/2000/svg">
<path d="M32.0105 56.6462H21.5692C21.3644 56.6462 21.168 56.7275 21.0232 56.8723C20.8785 57.0171 20.7971 57.2135 20.7971 57.4182C20.7971 57.623 20.8785 57.8194 21.0232 57.9642C21.168 58.1089 21.3644 58.1903 21.5692 58.1903H32.0105C32.2153 58.1903 32.4116 58.1089 32.5564 57.9642C32.7012 57.8194 32.7826 57.623 32.7826 57.4182C32.7826 57.2135 32.7012 57.0171 32.5564 56.8723C32.4116 56.7275 32.2153 56.6462 32.0105 56.6462ZM27.2454 61.0273H21.5692C21.3644 61.0273 21.168 61.1087 21.0232 61.2535C20.8785 61.3983 20.7971 61.5946 20.7971 61.7994C20.7971 62.0042 20.8785 62.2005 21.0232 62.3453C21.168 62.4901 21.3644 62.5715 21.5692 62.5715H27.2454C27.4501 62.5715 27.6465 62.4901 27.7913 62.3453C27.9361 62.2005 28.0174 62.0042 28.0174 61.7994C28.0174 61.5946 27.9361 61.3983 27.7913 61.2535C27.6465 61.1087 27.4501 61.0273 27.2454 61.0273ZM47.3786 56.4526H39.3708C38.7902 56.4526 38.3187 56.9241 38.3187 57.5057V61.469C38.3187 62.0506 38.7902 62.522 39.3708 62.522H47.3796C47.9602 62.522 48.4317 62.0506 48.4317 61.47V57.5057C48.4317 56.9241 47.9602 56.4526 47.3786 56.4526Z" fill="#020202"/>
<path d="M61.9603 26.008C60.3647 12.3519 48.7807 2.05774 35 2.05774C21.2038 2.05774 9.61059 12.3714 8.03353 26.0533C7.98 26.5557 8.29294 27.022 8.77677 27.1651L17.185 38.6533C16.4923 39.5679 16.1158 40.6828 16.1124 41.8301V62.6016C16.114 64.0175 16.6772 65.3749 17.6784 66.3761C18.6796 67.3773 20.037 67.9405 21.4529 67.9421H48.5522C49.9683 67.9408 51.326 67.3777 52.3274 66.3765C53.3289 65.3753 53.8922 64.0176 53.8938 62.6016V41.8301C53.8901 40.6882 53.5171 39.5781 52.8304 38.6657C54.3293 36.6521 60.0621 28.9542 61.4981 27.0282C61.6616 26.9247 61.7923 26.7768 61.8749 26.6018C61.9575 26.4268 61.9885 26.2319 61.9644 26.0399V26.0379C61.9629 26.0276 61.9612 26.0173 61.9593 26.007L61.9603 26.008ZM48.5512 36.4895H46.6169L48.9815 27.966C49.0678 27.8595 49.1367 27.74 49.1853 27.6119C49.5342 26.3959 50.2688 25.3264 51.2785 24.5644C52.2882 23.8024 53.5183 23.3892 54.7832 23.3871C55.8496 23.382 56.8966 23.6724 57.8081 24.2261C58.7195 24.7797 59.4598 25.575 59.9468 26.5238C53.0868 35.736 52.1377 37.0021 51.7321 37.5652C50.8167 36.8708 49.7001 36.4932 48.5512 36.4895ZM35.7721 36.4895V29.2054L35.771 29.1982C35.7731 25.9936 38.3857 23.3871 41.5975 23.3871C42.8629 23.3926 44.0925 23.8078 45.1021 24.5708C46.1116 25.3337 46.8468 26.4032 47.1975 27.6191C47.2356 27.7488 47.3004 27.862 47.3797 27.9649L45.0141 36.4895H35.7721ZM18.2926 37.5488L10.2118 26.2458C10.7231 25.3739 11.454 24.6511 12.3316 24.1496C13.2092 23.648 14.2029 23.3851 15.2137 23.3871C17.8026 23.3871 20.1096 25.1248 20.8147 27.5861C20.8518 27.7374 20.9249 27.8744 21.0226 27.9927L23.3893 36.4895H21.4529C20.2671 36.4895 19.181 36.891 18.2926 37.5488ZM24.9921 36.4895L22.6213 27.9763C22.7037 27.8702 22.7716 27.7498 22.8118 27.6119C23.1609 26.3958 23.896 25.3262 24.9061 24.5644C25.9162 23.8025 27.1466 23.3897 28.4118 23.3882C29.9537 23.3901 31.432 24.0035 32.5223 25.0938C33.6126 26.1841 34.226 27.6624 34.2279 29.2044V36.4895H24.9941H24.9921ZM60.0919 24.0841C59.4045 23.371 58.5797 22.8047 57.6672 22.4195C56.7548 22.0344 55.7737 21.8382 54.7832 21.843C53.6946 21.8453 52.6198 22.0873 51.6352 22.5518C50.6506 23.0164 49.7804 23.692 49.0865 24.5308C48.8425 15.927 45.7059 8.44421 38.4372 3.83142C49.1863 5.27259 57.9353 13.3864 60.0919 24.0841ZM31.5638 3.83039C24.2169 8.56465 21.1544 15.8714 20.9104 24.5411C20.2178 23.7004 19.3482 23.0229 18.3637 22.5567C17.3792 22.0905 16.304 21.8472 15.2147 21.8441C13.1651 21.8441 11.269 22.6717 9.905 24.0923C12.0585 13.3905 20.8116 5.27259 31.5638 3.83039ZM52.3497 62.6016C52.3486 63.6083 51.9481 64.5735 51.2362 65.2852C50.5242 65.997 49.5589 66.3972 48.5522 66.398H21.4529C20.4464 66.3969 19.4814 65.9966 18.7696 65.2849C18.0579 64.5731 17.6576 63.6081 17.6565 62.6016V41.8301C17.6576 40.8235 18.0579 39.8585 18.7696 39.1468C19.4814 38.435 20.4464 38.0347 21.4529 38.0336H30.3924V46.272C30.3924 46.8948 31.0687 47.2829 31.6071 46.9679L34.5934 45.222C34.717 45.1495 34.8577 45.1113 35.001 45.1113C35.1443 45.1113 35.2851 45.1495 35.4087 45.222L38.396 46.9679C38.5186 47.0396 38.6579 47.0777 38.7999 47.0784C38.942 47.079 39.0816 47.0422 39.2049 46.9716C39.3281 46.901 39.4305 46.7992 39.5018 46.6763C39.573 46.5535 39.6106 46.414 39.6107 46.272V38.0336H48.5522C50.6049 38.0336 52.3497 39.7445 52.3497 41.8301V62.6016Z" fill="#020202"/>
</svg>
