<svg width="80" height="70" viewBox="0 0 80 70" fill="none" xmlns="http://www.w3.org/2000/svg">
<circle cx="57" cy="47" r="23" fill="#E8E8E8"/>
<path d="M66.9608 35.427C65.9079 34.489 64.453 34.3167 63.2597 34.8782V10.3744C63.2597 7.97514 61.3071 6.02881 58.9077 6.02881H21.7947C19.3954 6.02881 17.4426 7.975 17.4426 10.3744V37.2394C15.9367 38.2094 15.4645 38.9049 12.8801 41.3042V37.3542C12.8801 35.944 11.7313 34.7954 10.3148 34.7954H5.24828C3.83803 34.7954 2.68945 35.944 2.68945 37.3542V61.2454C2.68945 62.6621 3.83803 63.8107 5.24828 63.8107H10.3149C11.7315 63.8107 12.8802 62.6621 12.8802 61.2454V60.0203L19.1274 55.3938C20.2441 54.5707 21.6288 54.1111 23.0199 54.1111H44.8245C48.3087 54.1111 50.7527 53.4411 51.2376 53.3645C55.1174 52.5478 58.5441 50.595 61.1539 47.7172C63.2214 45.4328 65.2699 42.9121 67.4139 40.0215C68.4796 38.5858 68.2818 36.614 66.9608 35.427ZM19.038 10.3744C19.038 8.85574 20.276 7.62418 21.7947 7.62418H33.7466V17.33C33.7464 17.7076 33.8498 18.0781 34.0456 18.401C34.2414 18.724 34.522 18.987 34.8569 19.1615C35.5397 19.5124 36.3564 19.4614 36.9882 19.0211L40.3511 16.6792L43.714 19.0211C44.3329 19.455 45.1498 19.5251 45.8453 19.1615C46.1802 18.987 46.4608 18.724 46.6566 18.401C46.8524 18.0781 46.9558 17.7076 46.9556 17.33V7.62418H58.9075C60.4262 7.62418 61.6642 8.85574 61.6642 10.3744V36.1991C58.9394 38.994 56.1954 41.3743 53.4962 43.2759C51.4159 44.7436 48.9463 45.5158 46.3492 45.5158H33.7208C33.389 45.5158 33.0634 45.3754 32.8402 45.1265C32.2595 44.482 32.5466 43.4483 33.3825 43.1995L49.5653 38.3944C50.3763 38.1551 51.0761 37.6357 51.54 36.9287C52.0039 36.2217 52.2018 35.373 52.0985 34.5337C51.8497 32.5108 49.9799 31.1198 47.989 31.4325L21.8261 35.5612C20.8562 35.7143 19.9245 35.9951 19.0376 36.3843L19.038 10.3744ZM66.1313 39.0707C64.0192 41.9231 62.0027 44.3991 59.9671 46.6452C57.587 49.2743 54.4538 51.0611 50.9122 51.8013C50.4081 51.8843 48.1108 52.5159 44.8245 52.5159H23.0199C21.2907 52.5159 19.5741 53.0838 18.1767 54.1111L12.8802 58.0357V43.5056L16.8493 39.7215C18.2978 38.3432 20.1037 37.4498 22.0755 37.1371L48.2384 33.0085C48.5013 32.967 48.7698 32.9788 49.0281 33.0433C49.2863 33.1077 49.5289 33.2235 49.7415 33.3836C49.954 33.5438 50.1322 33.7451 50.2654 33.9755C50.3985 34.206 50.4839 34.4608 50.5165 34.725C50.5734 35.1906 50.4636 35.6613 50.2066 36.0537C49.9497 36.4462 49.5622 36.735 49.1127 36.8691L32.93 41.6678C30.971 42.2485 30.2882 44.6735 31.6602 46.1921C32.1834 46.7792 32.9364 47.111 33.7213 47.111H46.3498C49.2787 47.111 52.0673 46.2368 54.4156 44.5776C57.3893 42.4846 60.4076 39.8363 63.3877 36.7096C64.064 36.0077 65.168 35.9694 65.8955 36.6202C66.6036 37.2457 66.7055 38.305 66.1313 39.0707Z" fill="#020202"/>
</svg>
