<svg width="70" height="70" viewBox="0 0 70 70" fill="none" xmlns="http://www.w3.org/2000/svg">
<path d="M62.8041 6.8491C58.34 2.38363 51.0726 2.38363 46.6034 6.8491L36.8095 16.6442C36.8057 16.648 36.8019 16.6505 36.7981 16.6543C36.7943 16.6582 36.7918 16.662 36.788 16.6658L12.0115 41.4447C12.0065 41.4498 12.0026 41.4549 11.9976 41.46C11.9811 41.4777 11.9646 41.4955 11.9494 41.5133C11.9379 41.526 11.9278 41.5386 11.9176 41.5513C11.9037 41.5691 11.891 41.5869 11.8783 41.6046C11.8669 41.6199 11.8567 41.6364 11.8453 41.6529L11.8187 41.6985C11.8072 41.7188 11.7958 41.7391 11.7857 41.7594C11.778 41.7734 11.7717 41.7874 11.7654 41.8013C11.7552 41.8242 11.7451 41.8483 11.7362 41.8724C11.7336 41.8775 11.7311 41.8825 11.7298 41.8889L3.57169 64.5436C3.49383 64.7587 3.47898 64.9915 3.52888 65.2147C3.57879 65.4379 3.69137 65.6423 3.8534 65.8037C4.01507 65.9653 4.2194 66.0777 4.44252 66.1276C4.66564 66.1774 4.89835 66.1628 5.11347 66.0854L21.2483 60.2748C21.3485 60.4525 21.4742 60.62 21.6264 60.771L23.521 62.6668C24.3788 63.5246 25.6579 63.5893 26.8609 62.8343L28.8087 61.6072C29.3823 61.8928 29.9736 62.1389 30.5802 62.342L31.0903 64.5842C31.4 65.9483 32.3732 66.829 33.5711 66.829H36.2512C37.4491 66.829 38.4224 65.9483 38.732 64.5855L39.2421 62.342C39.8525 62.1389 40.4451 61.8928 41.0136 61.6072L42.9602 62.8356C44.1581 63.5868 45.4372 63.5234 46.3013 62.6656L48.1896 60.7748C49.0436 59.9259 49.1095 58.6125 48.3609 57.4286L47.1363 55.4845C47.4231 54.9109 47.668 54.3183 47.871 53.713L50.1095 53.2029C51.4762 52.8946 52.3581 51.92 52.3581 50.7221V48.0421C52.3581 46.8239 51.4965 45.8734 50.112 45.5612L47.871 45.0511C47.668 44.4446 47.4231 43.852 47.1363 43.2784L48.3571 41.3369C49.1108 40.1529 49.0461 38.8383 48.1934 37.9932L48.0271 37.8257L52.9989 32.8552V32.8539L62.8041 23.0486C67.2683 18.5844 67.2683 11.3171 62.8041 6.8491ZM21.4577 57.4298C21.4042 57.5148 21.3542 57.6021 21.3079 57.6912L6.70601 62.9498L13.3541 44.4915L17.4642 48.6017V50.7221C17.4642 51.939 18.3246 52.8908 19.7065 53.2017L21.9487 53.7118C22.1505 54.3171 22.3954 54.9097 22.6822 55.4845L21.4577 57.4298ZM39.2294 53.7004C38.076 54.8564 36.5418 55.4921 34.9112 55.4921C33.2806 55.4921 31.7438 54.8551 30.5891 53.7004C28.2085 51.3198 28.2085 47.4431 30.5878 45.06C31.7806 43.8697 33.3453 43.2733 34.9112 43.2733C36.4771 43.2733 38.0392 43.8685 39.2294 45.0587C40.3855 46.2148 41.0212 47.7502 41.0212 49.3808C41.0212 51.0114 40.3855 52.5456 39.2294 53.7004ZM46.3242 36.1202L46.2975 36.0935C45.4372 35.2395 44.1581 35.1761 42.9564 35.9298L41.0123 37.1557C40.4401 36.8698 39.8486 36.6243 39.2421 36.4209L38.732 34.1787C38.4224 32.8145 37.4491 31.9339 36.2512 31.9339H33.5711C32.3732 31.9339 31.4 32.8146 31.0903 34.1774L30.5802 36.4209C29.9736 36.624 29.3823 36.8701 28.8087 37.1569L26.8596 35.9273C25.6579 35.1735 24.3788 35.2383 23.521 36.0961L21.6264 37.9919C20.7788 38.8396 20.7128 40.1504 21.4577 41.3305L22.6835 43.2784C22.3954 43.8532 22.1505 44.4458 21.9487 45.0511L19.709 45.56C19.2015 45.6755 18.7649 45.8759 18.4147 46.1437L14.5672 42.2975L37.6508 19.2113L50.442 32.0024L46.3242 36.1202Z" fill="#020202"/>
</svg>
