<svg width="70" height="70" viewBox="0 0 70 70" fill="none" xmlns="http://www.w3.org/2000/svg">
<path d="M54.6875 17.5547V7.65625C54.6875 4.6375 52.2375 2.1875 49.2188 2.1875H20.7812C17.7625 2.1875 15.3125 4.6375 15.3125 7.65625V24.8063L7.84219 35.2734C5.56719 38.4453 4.375 42.175 4.375 46.0797V66.7188C4.375 67.3203 4.86719 67.8125 5.46875 67.8125H14.8203C15.9797 67.8125 17.0953 67.55 18.1016 67.0797C18.9 67.5281 19.8078 67.8125 20.7812 67.8125H49.2188C52.2375 67.8125 54.6875 65.3625 54.6875 62.3438V45.3469C56.7 43.575 65.625 35.3938 65.625 29.5313C65.625 23.2641 60.8125 18.1125 54.6875 17.5547ZM48.125 29.5313C48.125 26.5125 50.575 24.0625 53.5938 24.0625C56.6125 24.0625 59.0625 26.5125 59.0625 29.5313C59.0625 32.55 56.6125 35 53.5938 35C50.575 35 48.125 32.55 48.125 29.5313ZM52.5 62.3438C52.5 64.1484 51.0234 65.625 49.2188 65.625H20.7812C20.6063 65.625 20.4422 65.6031 20.2781 65.5703C21.4435 64.4372 22.2077 62.955 22.4547 61.3484C22.8484 58.7016 21.8969 56.1094 19.9938 54.4031L27.0375 47.1844C27.9638 46.2142 28.4673 44.9161 28.4375 43.575C28.3938 42.2188 27.8359 40.9609 26.8406 40.0531C24.9594 38.325 21.9188 38.4672 20.0594 40.3812L17.5 43.0063V7.65625C17.5 5.85156 18.9766 4.375 20.7812 4.375H49.2188C51.0234 4.375 52.5 5.85156 52.5 7.65625V17.5547C46.375 18.1125 41.5625 23.2641 41.5625 29.5313C41.5625 35.3938 50.4875 43.575 52.5 45.3469V62.3438Z" fill="#3655FF"/>
<path d="M38.2812 6.5625H31.7188C31.1172 6.5625 30.625 7.05469 30.625 7.65625C30.625 8.25781 31.1172 8.75 31.7188 8.75H38.2812C38.8828 8.75 39.375 8.25781 39.375 7.65625C39.375 7.05469 38.8828 6.5625 38.2812 6.5625Z" fill="#020202"/>
<path d="M35 63.4375C37.1142 63.4375 38.8281 61.7236 38.8281 59.6094C38.8281 57.4952 37.1142 55.7812 35 55.7812C32.8858 55.7812 31.1719 57.4952 31.1719 59.6094C31.1719 61.7236 32.8858 63.4375 35 63.4375Z" fill="#020202"/>
</svg>
