<svg width="70" height="70" viewBox="0 0 70 70" fill="none" xmlns="http://www.w3.org/2000/svg">
<path d="M64.5979 36.1204L60.8132 34.5426V33.4488C60.8132 27.7572 59.0031 22.385 55.6152 17.8646C56.354 16.9662 56.724 15.8207 56.6503 14.6598C56.5767 13.4989 56.0648 12.4094 55.2183 11.6116C49.6762 6.39308 42.3485 3.4911 34.7362 3.50002C27.1087 3.50002 19.8296 6.38455 14.2541 11.6116C12.4827 13.2765 12.3472 16.0158 13.8669 17.8646C10.479 22.385 8.66893 27.7572 8.66893 33.4488V34.533L4.88419 36.1204C4.04206 36.4786 3.5 37.2917 3.5 38.2112V50.1849C3.5 51.0948 4.04206 51.9176 4.88419 52.2661L13.2377 55.7701C13.3129 56.5143 13.6612 57.2043 14.2155 57.7066C14.7697 58.209 15.4904 58.4881 16.2384 58.4901C17.913 58.4901 19.2681 57.1349 19.2681 55.4603V32.9261C19.2681 31.2516 17.913 29.8964 16.2384 29.8964C14.6703 29.8964 13.3926 31.0967 13.2377 32.6261L10.1209 33.9328V33.4488C10.1209 28.1154 11.8051 23.0819 14.951 18.8326C16.7708 19.9941 19.0358 19.7328 20.5555 18.3196C24.4177 14.6994 29.4511 12.6957 34.7362 12.6957C40.031 12.6957 45.0644 14.6994 48.9266 18.3196C49.8074 19.1423 50.9303 19.5489 52.0531 19.5489C52.9146 19.5489 53.7761 19.3069 54.5311 18.8326C57.677 23.0819 59.3612 28.1154 59.3612 33.4488V33.9328L56.2444 32.6261C56.0895 31.0967 54.8118 29.8964 53.2437 29.8964C51.5691 29.8964 50.2043 31.2516 50.2043 32.9261V55.4603C50.2043 56.8736 51.1819 58.0448 52.4887 58.3836C52.3241 60.91 50.243 62.9233 47.6779 62.9233H41.299C41.1441 61.0261 39.576 59.5355 37.6498 59.5355H32.3647C30.332 59.5355 28.6864 61.1907 28.6864 63.2137C28.6864 65.2465 30.332 66.892 32.3647 66.892H37.6498C39.276 66.892 40.6311 65.8272 41.1248 64.3753H47.6779C51.0367 64.3753 53.7857 61.7231 53.9503 58.403C54.5572 58.2537 55.1033 57.9207 55.5138 57.4494C55.9244 56.9782 56.1796 56.3917 56.2444 55.7701L64.5979 52.2661C65.44 51.9176 65.9821 51.0948 65.9821 50.1849V38.2112C65.9821 37.2917 65.44 36.4786 64.5979 36.1204ZM13.2087 34.2135V54.1826L5.44561 50.9303C5.29875 50.8689 5.17342 50.7653 5.08553 50.6326C4.99764 50.4999 4.95115 50.3441 4.95195 50.1849V38.2112C4.95195 37.8821 5.14554 37.5917 5.44561 37.4659L13.2087 34.2135ZM64.5302 50.1849C64.5302 50.514 64.3366 50.8044 64.0365 50.9303L56.2734 54.1826V34.2135L64.0365 37.4659C64.3366 37.5917 64.5302 37.8821 64.5302 38.2112V50.1849Z" fill="white"/>
</svg>
