<svg width="22" height="22" viewBox="0 0 22 22" fill="none" xmlns="http://www.w3.org/2000/svg">
<circle cx="11" cy="11" r="11" fill="#D9DFFF"/>
<g clip-path="url(#clip0_1405_4056)">
<path d="M15.2718 6.16212C13.6878 7.42548 11.6424 10.2126 10.4994 12.679L10.1852 13.3704C10.1099 13.5361 9.87621 13.541 9.79401 13.3787L9.21609 12.2378C8.45409 10.7339 8.41413 10.6938 7.99305 10.9745C7.75245 11.1349 7.07049 11.556 6.50913 11.8969C5.92773 12.2579 5.44641 12.5786 5.44641 12.6188C5.44641 12.659 5.88753 12.9596 6.40881 13.3006C6.95025 13.6414 8.01297 14.5838 8.79501 15.3859L10.0271 16.6351C10.05 16.6584 10.0779 16.6761 10.1086 16.6871C10.1394 16.6981 10.1722 16.7019 10.2047 16.6985C10.2372 16.695 10.2684 16.6842 10.2961 16.667C10.3239 16.6497 10.3474 16.6265 10.3649 16.5989L10.9808 15.6264C12.5249 13.2604 14.8709 10.6536 16.1141 9.99192C16.6153 9.73116 16.6353 9.67104 16.4349 9.08952C16.3146 8.70852 16.2745 7.82628 16.3346 6.88392C16.4148 6.00156 16.4349 5.2998 16.4148 5.2998C16.3947 5.2998 15.8733 5.68092 15.2718 6.16212Z" fill="#2041F4"/>
</g>
<defs>
<clipPath id="clip0_1405_4056">
<rect width="12" height="12" fill="white" transform="translate(5 5)"/>
</clipPath>
</defs>
</svg>
