<svg width="90" height="22" viewBox="0 0 90 22" fill="none" xmlns="http://www.w3.org/2000/svg">
<path d="M23.6554 7.79639H32.7603V9.48409H29.1753V18.998H27.2104V9.48409H23.6404L23.6554 7.79639ZM32.3703 10.888H34.0503V12.4562H34.0803C34.1403 12.2322 34.2453 12.0231 34.3953 11.814C34.5453 11.6049 34.7253 11.4108 34.9503 11.2465C35.1603 11.0672 35.4003 10.9328 35.6703 10.8283C35.9253 10.7237 36.1953 10.664 36.4653 10.664C36.6753 10.664 36.8253 10.6789 36.9003 10.6789C36.9753 10.6939 37.0653 10.7088 37.1403 10.7088V12.4264C37.0203 12.3965 36.8853 12.3816 36.7503 12.3666C36.6153 12.3517 36.4953 12.3368 36.3603 12.3368C36.0603 12.3368 35.7753 12.3965 35.5053 12.516C35.2353 12.6355 35.0103 12.8147 34.8003 13.0387C34.6053 13.2777 34.4403 13.5615 34.3203 13.905C34.2003 14.2485 34.1403 14.6518 34.1403 15.0998V18.9532H32.3403L32.3703 10.888ZM45.3902 18.998H43.6202V17.8629H43.5902C43.3652 18.2811 43.0352 18.5947 42.6003 18.8486C42.1653 19.1025 41.7153 19.222 41.2653 19.222C40.2003 19.222 39.4203 18.9681 38.9403 18.4304C38.4603 17.9077 38.2203 17.1012 38.2203 16.0407V10.888H40.0203V15.8615C40.0203 16.5784 40.1553 17.0862 40.4403 17.37C40.7103 17.6687 41.1003 17.8181 41.5953 17.8181C41.9703 17.8181 42.2853 17.7583 42.5403 17.6388C42.7953 17.5194 43.0053 17.37 43.1553 17.1758C43.3202 16.9817 43.4252 16.7427 43.5002 16.4739C43.5752 16.205 43.6052 15.9063 43.6052 15.5927V10.888H45.4052V18.998H45.3902ZM48.4502 16.3992C48.5102 16.9219 48.7052 17.2804 49.0502 17.5044C49.3952 17.7135 49.8152 17.8181 50.2952 17.8181C50.4602 17.8181 50.6552 17.8031 50.8652 17.7733C51.0752 17.7434 51.2852 17.6986 51.4652 17.6239C51.6602 17.5492 51.8102 17.4447 51.9302 17.2953C52.0502 17.146 52.1102 16.9667 52.0952 16.7427C52.0802 16.5187 52.0052 16.3245 51.8402 16.1752C51.6752 16.0258 51.4802 15.9213 51.2402 15.8167C51.0002 15.7271 50.7152 15.6524 50.4002 15.5927C50.0852 15.5329 49.7702 15.4583 49.4402 15.3836C49.1102 15.3089 48.7802 15.2193 48.4652 15.1148C48.1502 15.0102 47.8802 14.8758 47.6252 14.6816C47.3852 14.5024 47.1752 14.2784 47.0402 13.9946C46.8902 13.7108 46.8152 13.3822 46.8152 12.964C46.8152 12.516 46.9202 12.1575 47.1452 11.8588C47.3552 11.5601 47.6402 11.3212 47.9702 11.1419C48.3002 10.9627 48.6752 10.8283 49.0802 10.7536C49.4852 10.6789 49.8752 10.6491 50.2352 10.6491C50.6552 10.6491 51.0602 10.6939 51.4352 10.7835C51.8102 10.8731 52.1702 11.0075 52.4702 11.2166C52.7852 11.4108 53.0402 11.6796 53.2352 11.9932C53.4452 12.3069 53.5652 12.6952 53.6252 13.1433H51.7502C51.6602 12.7101 51.4652 12.4264 51.1652 12.277C50.8502 12.1277 50.5052 12.053 50.1002 12.053C49.9802 12.053 49.8152 12.0679 49.6502 12.0829C49.4702 12.1127 49.3202 12.1426 49.1552 12.2023C49.0052 12.2621 48.8702 12.3517 48.7652 12.4562C48.6602 12.5608 48.6002 12.7101 48.6002 12.8894C48.6002 13.1134 48.6752 13.2777 48.8252 13.4121C48.9752 13.5465 49.1702 13.6511 49.4252 13.7556C49.6652 13.8452 49.9502 13.9199 50.2652 13.9797C50.5802 14.0394 50.9102 14.1141 51.2402 14.1888C51.5702 14.2634 51.8852 14.353 52.2002 14.4576C52.5152 14.5621 52.8002 14.6966 53.0402 14.8907C53.2802 15.0699 53.4902 15.294 53.6402 15.5628C53.7902 15.8317 53.8652 16.1752 53.8652 16.5635C53.8652 17.0414 53.7602 17.4447 53.5352 17.7882C53.3102 18.1168 53.0252 18.4006 52.6802 18.6096C52.3352 18.8187 51.9302 18.9681 51.5102 19.0726C51.0752 19.1623 50.6552 19.222 50.2352 19.222C49.7252 19.222 49.2452 19.1623 48.8102 19.0428C48.3752 18.9233 47.9852 18.7441 47.6702 18.52C47.3552 18.2811 47.1002 17.9973 46.9202 17.6388C46.7402 17.2953 46.6352 16.8771 46.6202 16.3843H48.4352V16.3992H48.4502ZM54.3752 10.888H55.7402V8.43861H57.5402V10.8731H59.1601V12.2023H57.5402V16.5336C57.5402 16.7278 57.5551 16.8771 57.5701 17.0265C57.5852 17.1609 57.6301 17.2804 57.6752 17.37C57.7351 17.4596 57.8252 17.5343 57.9302 17.5791C58.0502 17.6239 58.2001 17.6538 58.4101 17.6538C58.5301 17.6538 58.6651 17.6538 58.7851 17.6388C58.9051 17.6239 59.0401 17.609 59.1601 17.5791V18.9681C58.9651 18.998 58.7701 19.0129 58.5751 19.0278C58.3801 19.0577 58.2001 19.0577 57.9902 19.0577C57.5102 19.0577 57.1352 19.0129 56.8502 18.9233C56.5652 18.8337 56.3402 18.6993 56.1752 18.535C56.0102 18.3557 55.9052 18.1466 55.8452 17.8927C55.7852 17.6388 55.7552 17.3252 55.7402 16.9966V12.2173H54.3752V10.8582V10.888ZM60.4201 10.888H62.1151V11.9932H62.1451C62.4001 11.5153 62.7451 11.1867 63.1951 10.9776C63.6451 10.7685 64.1251 10.664 64.6651 10.664C65.3101 10.664 65.8651 10.7685 66.3451 11.0075C66.8251 11.2315 67.2151 11.5302 67.5301 11.9335C67.8451 12.3218 68.0851 12.7848 68.2351 13.3076C68.3851 13.8303 68.4751 14.3978 68.4751 14.9803C68.4751 15.5329 68.4001 16.0557 68.2651 16.5635C68.1151 17.0713 67.9051 17.5343 67.6201 17.9226C67.3351 18.3109 66.9751 18.6246 66.5251 18.8635C66.0751 19.1025 65.5651 19.222 64.9651 19.222C64.7101 19.222 64.4401 19.1921 64.1851 19.1473C63.9301 19.1025 63.6751 19.0278 63.4351 18.9233C63.1951 18.8187 62.9701 18.6843 62.7751 18.52C62.5651 18.3557 62.4001 18.1616 62.2651 17.9525H62.2351V22H60.4351V10.888H60.4201ZM66.7051 14.9505C66.7051 14.592 66.6601 14.2336 66.5551 13.89C66.4651 13.5465 66.3151 13.2478 66.1201 12.979C65.9251 12.7101 65.6851 12.5011 65.4151 12.3368C65.1301 12.1725 64.8001 12.0978 64.4401 12.0978C63.6901 12.0978 63.1201 12.3517 62.7301 12.8744C62.3551 13.3972 62.1601 14.0991 62.1601 14.9654C62.1601 15.3836 62.2051 15.757 62.3101 16.1005C62.4151 16.444 62.5501 16.7427 62.7601 16.9966C62.9551 17.2505 63.1951 17.4447 63.4801 17.594C63.7651 17.7434 64.0801 17.8181 64.4551 17.8181C64.8751 17.8181 65.2051 17.7285 65.4901 17.5642C65.7751 17.3999 66.0001 17.1758 66.1951 16.9219C66.3751 16.6531 66.5101 16.3544 66.5851 16.0109C66.6601 15.6524 66.7051 15.3089 66.7051 14.9505ZM69.8701 7.79639H71.6701V9.48409H69.8701V7.79639ZM69.8701 10.888H71.6701V18.998H69.8701V10.888ZM73.275 7.79639H75.075V18.998H73.275V7.79639ZM80.565 19.222C79.92 19.222 79.335 19.1175 78.825 18.8934C78.315 18.6694 77.895 18.3856 77.535 18.0122C77.19 17.6388 76.92 17.1758 76.74 16.6531C76.56 16.1304 76.455 15.5479 76.455 14.9355C76.455 14.3232 76.545 13.7556 76.74 13.2329C76.92 12.7101 77.19 12.2621 77.535 11.8738C77.88 11.5004 78.315 11.2017 78.825 10.9926C79.335 10.7835 79.92 10.664 80.565 10.664C81.21 10.664 81.795 10.7685 82.305 10.9926C82.815 11.2017 83.235 11.5004 83.595 11.8738C83.94 12.2471 84.21 12.7101 84.39 13.2329C84.57 13.7556 84.675 14.3232 84.675 14.9355C84.675 15.5628 84.585 16.1304 84.39 16.6531C84.195 17.1758 83.94 17.6239 83.595 18.0122C83.25 18.3856 82.815 18.6843 82.305 18.8934C81.795 19.1025 81.225 19.222 80.565 19.222ZM80.565 17.8031C80.955 17.8031 81.315 17.7135 81.6 17.5492C81.9 17.3849 82.125 17.1609 82.32 16.8921C82.515 16.6232 82.65 16.3096 82.74 15.981C82.83 15.6375 82.875 15.294 82.875 14.9355C82.875 14.592 82.83 14.2485 82.74 13.905C82.65 13.5615 82.515 13.2628 82.32 12.9939C82.125 12.7251 81.885 12.516 81.6 12.3517C81.3 12.1874 80.955 12.0978 80.565 12.0978C80.175 12.0978 79.815 12.1874 79.53 12.3517C79.23 12.516 79.005 12.74 78.81 12.9939C78.615 13.2628 78.48 13.5615 78.39 13.905C78.3 14.2485 78.255 14.592 78.255 14.9355C78.255 15.294 78.3 15.6375 78.39 15.981C78.48 16.3245 78.615 16.6232 78.81 16.8921C79.005 17.1609 79.245 17.3849 79.53 17.5492C79.83 17.7285 80.175 17.8031 80.565 17.8031ZM85.215 10.888H86.58V8.43861H88.3799V10.8731H89.9999V12.2023H88.3799V16.5336C88.3799 16.7278 88.395 16.8771 88.41 17.0265C88.4249 17.1609 88.4699 17.2804 88.5149 17.37C88.5749 17.4596 88.6649 17.5343 88.7699 17.5791C88.8899 17.6239 89.0399 17.6538 89.2499 17.6538C89.3699 17.6538 89.5049 17.6538 89.6249 17.6388C89.7449 17.6239 89.8799 17.609 89.9999 17.5791V18.9681C89.8049 18.998 89.6099 19.0129 89.4149 19.0278C89.2199 19.0577 89.0399 19.0577 88.8299 19.0577C88.3499 19.0577 87.9749 19.0129 87.6899 18.9233C87.4049 18.8337 87.18 18.6993 87.0149 18.535C86.85 18.3557 86.745 18.1466 86.685 17.8927C86.625 17.6388 86.595 17.3252 86.58 16.9966V12.2173H85.215V10.8582V10.888Z" fill="#020202"/>
<path d="M21.5549 7.7963H13.3199L10.7849 0L8.23494 7.7963L0 7.78137L6.65996 12.6055L4.10997 20.4018L10.7699 15.5777L17.4299 20.4018L14.8949 12.6055L21.5549 7.7963Z" fill="#00B67A"/>
<path d="M15.4641 14.3679L14.8942 12.6055L10.7842 15.5776L15.4641 14.3679Z" fill="#005128"/>
</svg>
