<svg width="155" height="48" viewBox="0 0 155 48" fill="none" xmlns="http://www.w3.org/2000/svg">
<mask id="mask0_1260_8739" style="mask-type:alpha" maskUnits="userSpaceOnUse" x="0" y="0" width="155" height="48">
<rect width="155" height="48" fill="#D9D9D9"/>
</mask>
<g mask="url(#mask0_1260_8739)">
<path d="M138.982 42.8687V39.4062H142.52V42.8687H138.982Z" fill="white"/>
<path d="M131.148 43.1009C130.149 43.1009 129.228 42.9555 128.384 42.6649C127.558 42.3742 126.869 42.0151 126.318 41.5876L127.609 39.5615C128.126 39.9205 128.686 40.2198 129.288 40.4591C129.891 40.6814 130.51 40.7926 131.148 40.7926C131.767 40.7926 132.258 40.6643 132.62 40.4078C132.998 40.1514 133.188 39.8179 133.188 39.4076C133.188 38.9972 133.033 38.698 132.723 38.5099C132.43 38.3047 132.043 38.1337 131.561 37.9969C131.079 37.8602 130.562 37.7234 130.011 37.5866C129.477 37.4498 128.97 37.2532 128.488 36.9967C128.005 36.7402 127.609 36.3811 127.3 35.9195C126.99 35.4578 126.835 34.8337 126.835 34.0472C126.835 32.8845 127.274 31.944 128.152 31.2259C129.03 30.4907 130.209 30.123 131.69 30.123C132.516 30.123 133.3 30.2342 134.04 30.4565C134.78 30.6788 135.443 30.9865 136.028 31.3798L134.711 33.3547C134.264 33.0469 133.782 32.8075 133.265 32.6365C132.749 32.4656 132.215 32.3801 131.664 32.3801C131.061 32.3801 130.579 32.5168 130.218 32.7904C129.856 33.0469 129.675 33.3803 129.675 33.7907C129.675 34.1669 129.83 34.4661 130.14 34.6884C130.467 34.8936 130.872 35.0645 131.354 35.2013C131.853 35.321 132.379 35.4578 132.929 35.6117C133.48 35.7656 133.997 35.9793 134.479 36.2529C134.978 36.5094 135.383 36.8684 135.693 37.3301C136.02 37.7918 136.183 38.4159 136.183 39.2024C136.183 39.9718 135.96 40.6472 135.512 41.2286C135.082 41.8099 134.488 42.2716 133.73 42.6136C132.99 42.9384 132.129 43.1009 131.148 43.1009Z" fill="white"/>
<path d="M119.257 43.1009C118.258 43.1009 117.337 42.9555 116.494 42.6649C115.667 42.3742 114.979 42.0151 114.428 41.5876L115.719 39.5615C116.235 39.9205 116.795 40.2198 117.397 40.4591C118 40.6814 118.62 40.7926 119.257 40.7926C119.877 40.7926 120.367 40.6643 120.729 40.4078C121.108 40.1514 121.297 39.8179 121.297 39.4076C121.297 38.9972 121.142 38.698 120.832 38.5099C120.54 38.3047 120.152 38.1337 119.67 37.9969C119.188 37.8602 118.672 37.7234 118.121 37.5866C117.587 37.4498 117.079 37.2532 116.597 36.9967C116.115 36.7402 115.719 36.3811 115.409 35.9195C115.099 35.4578 114.944 34.8337 114.944 34.0472C114.944 32.8845 115.383 31.944 116.261 31.2259C117.139 30.4907 118.319 30.123 119.799 30.123C120.626 30.123 121.409 30.2342 122.149 30.4565C122.89 30.6788 123.552 30.9865 124.138 31.3798L122.821 33.3547C122.373 33.0469 121.891 32.8075 121.375 32.6365C120.858 32.4656 120.324 32.3801 119.773 32.3801C119.171 32.3801 118.689 32.5168 118.327 32.7904C117.966 33.0469 117.785 33.3803 117.785 33.7907C117.785 34.1669 117.94 34.4661 118.25 34.6884C118.577 34.8936 118.981 35.0645 119.463 35.2013C119.963 35.321 120.488 35.4578 121.039 35.6117C121.59 35.7656 122.106 35.9793 122.588 36.2529C123.088 36.5094 123.492 36.8684 123.802 37.3301C124.129 37.7918 124.293 38.4159 124.293 39.2024C124.293 39.9718 124.069 40.6472 123.621 41.2286C123.191 41.8099 122.597 42.2716 121.839 42.6136C121.099 42.9384 120.238 43.1009 119.257 43.1009Z" fill="white"/>
<path d="M107.132 43.1265C105.875 43.1265 104.765 42.8615 103.801 42.3314C102.854 41.7843 102.113 41.0319 101.58 40.0744C101.046 39.0998 100.779 37.9713 100.779 36.6889V36.4324C100.779 35.2355 101.029 34.1669 101.528 33.2264C102.027 32.2689 102.725 31.5166 103.62 30.9694C104.532 30.4052 105.583 30.123 106.771 30.123C108.045 30.123 109.121 30.4308 109.999 31.0464C110.894 31.6448 111.548 32.4997 111.961 33.6112C112.375 34.7226 112.487 36.0306 112.297 37.5353H102.923V35.4322H110.722L109.405 36.5094C109.525 35.6544 109.482 34.9363 109.276 34.3549C109.086 33.7565 108.776 33.3034 108.346 32.9956C107.915 32.6707 107.399 32.5083 106.796 32.5083C106.125 32.5083 105.557 32.6793 105.092 33.0213C104.644 33.3632 104.3 33.8249 104.059 34.4062C103.835 34.9876 103.723 35.663 103.723 36.4324V36.9454C103.723 37.6464 103.861 38.2705 104.136 38.8177C104.412 39.3648 104.816 39.7923 105.35 40.1001C105.884 40.4078 106.53 40.5617 107.287 40.5617C107.924 40.5617 108.458 40.4762 108.888 40.3053C109.336 40.1172 109.74 39.8607 110.102 39.5358L111.781 41.2799C111.281 41.8954 110.627 42.3571 109.818 42.6649C109.026 42.9726 108.131 43.1265 107.132 43.1265Z" fill="white"/>
<path d="M92.1346 42.8685V30.378H95.0012V33.9943L94.6397 33.9687C94.6913 33.0283 94.8893 32.293 95.2336 31.763C95.578 31.2158 96.0256 30.8311 96.5765 30.6088C97.1275 30.3865 97.7301 30.2754 98.3843 30.2754H99.4173V33.1993H98.1519C97.1705 33.1993 96.413 33.4215 95.8793 33.8661C95.3628 34.3107 95.1045 34.9604 95.1045 35.8153V42.8685H92.1346Z" fill="white"/>
<path d="M76.2087 47.9996V30.3795H78.9978V33.406L78.4039 32.7391C78.8859 31.9355 79.523 31.3029 80.3149 30.8412C81.1241 30.3624 82.0194 30.123 83.0007 30.123C84.137 30.123 85.1528 30.3881 86.0481 30.9181C86.9433 31.4482 87.6492 32.192 88.1657 33.1495C88.6822 34.107 88.9405 35.2184 88.9405 36.4837V36.7402C88.9405 38.0226 88.6822 39.1426 88.1657 40.1001C87.6492 41.0576 86.9433 41.8014 86.0481 42.3314C85.17 42.8615 84.1628 43.1265 83.0265 43.1265C82.0796 43.1265 81.2188 42.9128 80.444 42.4853C79.6693 42.0408 79.0409 41.4423 78.5588 40.69L79.1786 39.9975V47.9996H76.2087ZM82.5359 40.5361C83.1729 40.5361 83.7496 40.3822 84.2661 40.0744C84.7999 39.7667 85.2131 39.3306 85.5057 38.7664C85.8156 38.185 85.9706 37.5096 85.9706 36.7402V36.4837C85.9706 35.6972 85.8156 35.0303 85.5057 34.4832C85.2131 33.9189 84.7999 33.4915 84.2661 33.2008C83.7496 32.893 83.1729 32.7391 82.5359 32.7391C81.8644 32.7391 81.2532 32.893 80.7023 33.2008C80.1686 33.5086 79.7468 33.9531 79.4369 34.5345C79.1442 35.1158 78.9978 35.8169 78.9978 36.6376C78.9978 37.4412 79.1442 38.1337 79.4369 38.7151C79.7468 39.2964 80.1686 39.7496 80.7023 40.0744C81.2532 40.3822 81.8644 40.5361 82.5359 40.5361Z" fill="white"/>
<path d="M61.2069 42.8694L65.4939 36.637L61.336 30.3789H64.8224L67.5082 34.739L70.1682 30.3789H73.6029L69.4451 36.6113L73.6804 42.8694H70.1424L67.4049 38.5606L64.6675 42.8694H61.2069Z" fill="white"/>
<path d="M50.3325 42.8695C49.4544 42.8695 48.7313 42.5874 48.1632 42.0232C47.6123 41.4589 47.3368 40.7408 47.3368 39.8687V27.9168C47.3368 27.0448 47.6123 26.3267 48.1632 25.7624C48.7313 25.1981 49.4544 24.916 50.3325 24.916H59.1388V27.7886H51.3913C51.1331 27.7886 50.9092 27.8826 50.7199 28.0707C50.5477 28.2417 50.4616 28.4554 50.4616 28.7119V39.0736C50.4616 39.3301 50.5477 39.5524 50.7199 39.7405C50.9092 39.9115 51.1331 39.997 51.3913 39.997H59.1388V42.8695H50.3325ZM48.8605 35.2265V32.4821H58.5965V35.2265H48.8605Z" fill="white"/>
<path d="M145.031 16.6968L144.824 12.9778L151.126 6.23243H154.793L145.031 16.6968ZM143.404 18.723V0H146.374V18.723H143.404ZM151.332 18.723L147.149 11.9263L149.447 9.95138L155 18.723H151.332Z" fill="white"/>
<path d="M135.962 18.98C134.705 18.98 133.577 18.715 132.579 18.185C131.597 17.6378 130.823 16.8855 130.255 15.9279C129.686 14.9704 129.402 13.8676 129.402 12.6194V12.3372C129.402 11.0719 129.686 9.96053 130.255 9.00301C130.84 8.04549 131.623 7.3017 132.605 6.77165C133.603 6.24159 134.722 5.97656 135.962 5.97656C136.892 5.97656 137.761 6.16465 138.57 6.54082C139.379 6.89989 140.034 7.40429 140.533 8.05404L138.725 9.87504C138.381 9.46467 137.968 9.16545 137.486 8.97736C137.021 8.78928 136.521 8.69524 135.988 8.69524C135.299 8.69524 134.679 8.84912 134.128 9.1569C133.595 9.44757 133.164 9.86649 132.837 10.4136C132.527 10.9437 132.372 11.5849 132.372 12.3372V12.6194C132.372 13.3546 132.527 13.9958 132.837 14.543C133.164 15.0901 133.603 15.5176 134.154 15.8253C134.722 16.116 135.342 16.2614 136.014 16.2614C136.53 16.2614 137.021 16.1759 137.486 16.0049C137.968 15.8168 138.407 15.5261 138.803 15.1329L140.585 16.9026C140.085 17.5523 139.422 18.0653 138.596 18.4414C137.77 18.8005 136.892 18.98 135.962 18.98Z" fill="white"/>
<path d="M123.782 18.7236V14.5173L123.421 13.4401V10.7984C123.421 10.0118 123.197 9.44757 122.749 9.1056C122.319 8.74653 121.716 8.567 120.942 8.567C120.339 8.567 119.693 8.68669 119.005 8.92607C118.316 9.16545 117.714 9.50742 117.197 9.95198L115.854 7.95145C116.44 7.353 117.197 6.87424 118.127 6.51517C119.074 6.1561 120.072 5.97656 121.122 5.97656C122.155 5.97656 123.059 6.1561 123.834 6.51517C124.626 6.87424 125.246 7.40429 125.693 8.10534C126.141 8.78928 126.365 9.64421 126.365 10.6701V14.6968C126.365 15.3808 126.365 16.0562 126.365 16.723C126.382 17.3728 126.408 18.0396 126.442 18.7236H123.782ZM120.193 18.98C118.764 18.98 117.619 18.6381 116.758 17.9541C115.897 17.2702 115.467 16.3811 115.467 15.2867C115.467 14.5515 115.665 13.8932 116.061 13.3119C116.457 12.7305 117.034 12.2688 117.791 11.9269C118.566 11.5849 119.504 11.4139 120.606 11.4139C122.104 11.4139 123.232 11.7473 123.989 12.4142C124.764 13.0639 125.151 13.9274 125.151 15.0046H124.376C124.376 16.2699 124.032 17.2531 123.343 17.9541C122.655 18.6381 121.605 18.98 120.193 18.98ZM120.942 16.8C121.699 16.8 122.302 16.6546 122.749 16.364C123.197 16.0562 123.421 15.6458 123.421 15.1329C123.421 14.637 123.197 14.2437 122.749 13.9531C122.302 13.6453 121.699 13.4914 120.942 13.4914C120.201 13.4914 119.599 13.6453 119.134 13.9531C118.686 14.2437 118.462 14.637 118.462 15.1329C118.462 15.6458 118.686 16.0562 119.134 16.364C119.599 16.6546 120.201 16.8 120.942 16.8Z" fill="white"/>
<path d="M106.799 18.723V6.23247H109.665V9.84882L109.304 9.82318C109.356 8.88276 109.553 8.14752 109.898 7.61746C110.242 7.0703 110.69 6.68559 111.241 6.46331C111.792 6.24102 112.394 6.12988 113.048 6.12988H114.081V9.05374H112.816C111.835 9.05374 111.077 9.27602 110.543 9.72059C110.027 10.1651 109.769 10.8149 109.769 11.6698V18.723H106.799Z" fill="white"/>
<path d="M98.0485 18.723V2.10322H101.251V18.723H98.0485ZM92.9093 3.64209V0.769531H106.467V3.64209H92.9093Z" fill="white"/>
<path d="M88.1927 18.98C86.9359 18.98 85.8254 18.715 84.8612 18.185C83.9143 17.6378 83.174 16.8855 82.6403 15.9279C82.1066 14.9533 81.8397 13.8248 81.8397 12.5424V12.2859C81.8397 11.089 82.0894 10.0204 82.5886 9.07996C83.0879 8.12243 83.7852 7.3701 84.6805 6.82294C85.593 6.25869 86.6432 5.97656 87.8311 5.97656C89.1052 5.97656 90.1812 6.28434 91.0592 6.89989C91.9545 7.49834 92.6087 8.35327 93.0219 9.46467C93.4351 10.5761 93.5471 11.8841 93.3577 13.3888H83.9832V11.2857H91.7823L90.4653 12.3629C90.5858 11.508 90.5427 10.7898 90.3361 10.2085C90.1468 9.61001 89.8369 9.1569 89.4064 8.84912C88.976 8.52425 88.4595 8.36181 87.8569 8.36181C87.1855 8.36181 86.6173 8.5328 86.1525 8.87477C85.7049 9.21674 85.3605 9.67841 85.1195 10.2598C84.8957 10.8411 84.7838 11.5165 84.7838 12.2859V12.7989C84.7838 13.4999 84.9215 14.124 85.197 14.6712C85.4724 15.2183 85.877 15.6458 86.4107 15.9536C86.9445 16.2614 87.5901 16.4152 88.3476 16.4152C88.9846 16.4152 89.5184 16.3298 89.9488 16.1588C90.3964 15.9707 90.801 15.7142 91.1625 15.3893L92.8412 17.1334C92.3419 17.7489 91.6877 18.2106 90.8785 18.5184C90.0865 18.8261 89.1912 18.98 88.1927 18.98Z" fill="white"/>
<path d="M67.4454 18.7236V6.23304H70.312V9.66986H69.5114C69.7008 8.91752 69.9677 8.30197 70.312 7.82321C70.6563 7.34445 71.0437 6.97683 71.4741 6.72035C71.9218 6.44677 72.378 6.25869 72.8429 6.1561C73.3077 6.03641 73.7295 5.97656 74.1083 5.97656C75.5201 5.97656 76.6477 6.43822 77.4914 7.36155C78.3522 8.26777 78.7826 9.57581 78.7826 11.2857V18.7236H75.8127V11.773C75.8127 10.6787 75.5803 9.89214 75.1155 9.41338C74.6506 8.91752 74.0394 8.66959 73.2819 8.66959C72.7482 8.66959 72.2575 8.78928 71.8099 9.02866C71.3794 9.26804 71.0351 9.62711 70.7769 10.1059C70.5358 10.5675 70.4153 11.1403 70.4153 11.8243V18.7236H67.4454Z" fill="white"/>
<path d="M55.4458 19.0828C53.7413 19.0828 52.2176 18.6895 50.8747 17.903C49.5318 17.1165 48.473 16.0307 47.6983 14.6457C46.9235 13.2607 46.5361 11.6535 46.5361 9.8239V9.61872C46.5361 7.78917 46.9235 6.19045 47.6983 4.82257C48.473 3.43758 49.5318 2.36037 50.8747 1.59094C52.2176 0.8044 53.7413 0.411133 55.4458 0.411133C57.1502 0.411133 58.6653 0.8044 59.991 1.59094C61.3339 2.36037 62.3927 3.43758 63.1674 4.82257C63.9422 6.19045 64.3296 7.78917 64.3296 9.61872V9.8239C64.3296 11.6535 63.9422 13.2607 63.1674 14.6457C62.3927 16.0307 61.3339 17.1165 59.991 17.903C58.6653 18.6895 57.1502 19.0828 55.4458 19.0828ZM55.4458 16.005C56.5476 16.005 57.5204 15.7571 58.364 15.2613C59.2076 14.7654 59.8704 14.0558 60.3525 13.1325C60.8346 12.1921 61.0756 11.0892 61.0756 9.8239V9.61872C61.0756 8.35343 60.8346 7.26767 60.3525 6.36144C59.8704 5.45522 59.2076 4.75417 58.364 4.25831C57.5204 3.74536 56.5476 3.48888 55.4458 3.48888C54.3611 3.48888 53.3884 3.74536 52.5275 4.25831C51.6667 4.75417 50.9952 5.45522 50.5132 6.36144C50.0311 7.26767 49.7901 8.35343 49.7901 9.61872V9.8239C49.7901 11.0892 50.0311 12.1921 50.5132 13.1325C50.9952 14.0558 51.6667 14.7654 52.5275 15.2613C53.3884 15.7571 54.3611 16.005 55.4458 16.005Z" fill="white"/>
<mask id="mask1_1260_8739" style="mask-type:alpha" maskUnits="userSpaceOnUse" x="0" y="0" width="36" height="36">
<path d="M0 0.257812H35.122V35.1389H0V0.257812Z" fill="#D9D9D9"/>
</mask>
<g mask="url(#mask1_1260_8739)">
<path d="M27.6258 20.1901C29.1566 21.0486 30.7206 21.8713 32.3196 22.6621L25.1289 34.2209C24.7297 33.2966 24.2506 32.2549 23.6916 31.0976C23.1326 29.9403 22.5269 28.789 21.8745 27.6457C21.222 26.5004 20.5228 25.4128 19.7769 24.3771C19.0309 23.3433 18.285 22.4708 17.541 21.7637C16.8223 22.4708 16.1562 23.3353 15.5427 24.3571C14.9312 25.377 14.3858 26.4605 13.9067 27.6039C13.4257 28.7472 13.0128 29.8985 12.668 31.0558C12.3213 32.2131 12.0545 33.2687 11.8695 34.2209L3.52196 25.1937C4.77234 24.1878 5.97792 23.1182 7.13481 21.9868C8.29365 20.8574 9.37848 19.6663 10.3912 18.4134C8.84678 18.2501 7.28089 18.1067 5.69746 17.9851C4.11404 17.8617 2.52283 17.774 0.923828 17.7182L5.67799 4.27911C6.58364 5.66744 7.68794 7.01593 8.99285 8.3226C10.2978 9.63126 11.6163 10.7606 12.9465 11.7148C12.7868 10.1073 12.5278 8.50784 12.1675 6.91435C11.8091 5.32086 11.3904 3.77517 10.9093 2.27728L23.491 1.17578C22.7451 2.80911 22.1608 4.58586 21.7342 6.50602C21.3077 8.42618 20.9883 10.2706 20.776 12.0414C22.3615 10.9946 23.8522 9.80469 25.2302 8.48593C26.6267 7.15337 27.8985 5.74911 29.0437 4.27911L34.1971 15.7981C32.3586 15.8539 30.5025 16.0431 28.6249 16.3697C26.7474 16.6984 24.903 17.0649 23.0917 17.4732C24.5836 18.4273 26.095 19.3317 27.6258 20.1901Z" fill="white"/>
</g>
</g>
</svg>
