<svg width="122" height="38" viewBox="0 0 122 38" fill="none" xmlns="http://www.w3.org/2000/svg">
<mask id="mask0_215_2" style="mask-type:alpha" maskUnits="userSpaceOnUse" x="0" y="0" width="122" height="38">
<rect width="122" height="38" fill="#D9D9D9"/>
</mask>
<g mask="url(#mask0_215_2)">
<path d="M109.393 33.9394V31.1982H112.178V33.9394H109.393Z" fill="black"/>
<path d="M103.227 34.1218C102.441 34.1218 101.716 34.0067 101.052 33.7766C100.401 33.5465 99.8592 33.2622 99.4255 32.9238L100.442 31.3197C100.848 31.604 101.289 31.8409 101.763 32.0304C102.237 32.2064 102.725 32.2944 103.227 32.2944C103.714 32.2944 104.101 32.1928 104.385 31.9898C104.683 31.7867 104.832 31.5228 104.832 31.1979C104.832 30.873 104.71 30.6362 104.467 30.4873C104.236 30.3248 103.931 30.1895 103.552 30.0812C103.172 29.9729 102.766 29.8646 102.332 29.7563C101.912 29.648 101.512 29.4923 101.133 29.2893C100.754 29.0862 100.442 28.802 100.198 28.4365C99.954 28.071 99.8321 27.5769 99.8321 26.9543C99.8321 26.0338 100.178 25.2893 100.869 24.7208C101.56 24.1387 102.488 23.8477 103.654 23.8477C104.304 23.8477 104.921 23.9356 105.503 24.1116C106.086 24.2876 106.608 24.5312 107.068 24.8426L106.032 26.406C105.679 26.1624 105.3 25.9729 104.893 25.8375C104.487 25.7021 104.067 25.6345 103.633 25.6345C103.159 25.6345 102.779 25.7427 102.495 25.9593C102.21 26.1624 102.068 26.4263 102.068 26.7512C102.068 27.049 102.19 27.2859 102.434 27.4619C102.691 27.6243 103.01 27.7597 103.389 27.868C103.782 27.9627 104.196 28.071 104.629 28.1928C105.063 28.3147 105.469 28.4839 105.849 28.7004C106.242 28.9035 106.56 29.1878 106.804 29.5532C107.062 29.9187 107.19 30.4128 107.19 31.0355C107.19 31.6446 107.014 32.1793 106.662 32.6395C106.323 33.0998 105.856 33.4653 105.259 33.736C104.677 33.9932 103.999 34.1218 103.227 34.1218Z" fill="black"/>
<path d="M93.8675 34.1218C93.0815 34.1218 92.3566 34.0067 91.6925 33.7766C91.0421 33.5465 90.5 33.2622 90.0664 32.9238L91.0827 31.3197C91.4893 31.604 91.9297 31.8409 92.404 32.0304C92.8783 32.2064 93.3661 32.2944 93.8675 32.2944C94.3554 32.2944 94.7416 32.1928 95.0261 31.9898C95.3243 31.7867 95.4733 31.5228 95.4733 31.1979C95.4733 30.873 95.3514 30.6362 95.1074 30.4873C94.8771 30.3248 94.5722 30.1895 94.1927 30.0812C93.8133 29.9729 93.4068 29.8646 92.9731 29.7563C92.553 29.648 92.1533 29.4923 91.7739 29.2893C91.3944 29.0862 91.0827 28.802 90.8388 28.4365C90.5949 28.071 90.4729 27.5769 90.4729 26.9543C90.4729 26.0338 90.8185 25.2893 91.5096 24.7208C92.2007 24.1387 93.129 23.8477 94.2944 23.8477C94.9448 23.8477 95.5614 23.9356 96.1441 24.1116C96.7268 24.2876 97.2485 24.5312 97.7093 24.8426L96.6726 26.406C96.3203 26.1624 95.9408 25.9729 95.5343 25.8375C95.1278 25.7021 94.7077 25.6345 94.274 25.6345C93.7998 25.6345 93.4203 25.7427 93.1357 25.9593C92.8512 26.1624 92.7089 26.4263 92.7089 26.7512C92.7089 27.049 92.8308 27.2859 93.0748 27.4619C93.3322 27.6243 93.6507 27.7597 94.0301 27.868C94.4231 27.9627 94.8364 28.071 95.2701 28.1928C95.7037 28.3147 96.1102 28.4839 96.4897 28.7004C96.8827 28.9035 97.2011 29.1878 97.445 29.5532C97.7025 29.9187 97.8312 30.4128 97.8312 31.0355C97.8312 31.6446 97.6551 32.1793 97.3027 32.6395C96.964 33.0998 96.4964 33.4653 95.9002 33.736C95.3175 33.9932 94.6399 34.1218 93.8675 34.1218Z" fill="black"/>
<path d="M84.3234 34.1421C83.3341 34.1421 82.4601 33.9323 81.7012 33.5126C80.9559 33.0795 80.3732 32.4839 79.9531 31.7258C79.533 30.9543 79.323 30.0609 79.323 29.0456V28.8426C79.323 27.895 79.5195 27.049 79.9125 26.3045C80.3055 25.5465 80.8543 24.9509 81.5589 24.5177C82.2772 24.071 83.1038 23.8477 84.0388 23.8477C85.0416 23.8477 85.8885 24.0913 86.5797 24.5786C87.2843 25.0524 87.7993 25.7292 88.1245 26.6091C88.4497 27.4889 88.5378 28.5245 88.3887 29.7157H81.0101V28.0507H87.1488L86.1121 28.9035C86.207 28.2267 86.1731 27.6581 86.0105 27.1979C85.8614 26.7241 85.6175 26.3654 85.2787 26.1218C84.94 25.8646 84.5334 25.736 84.0591 25.736C83.5306 25.736 83.0834 25.8713 82.7176 26.1421C82.3652 26.4128 82.0942 26.7783 81.9045 27.2385C81.7283 27.6988 81.6403 28.2334 81.6403 28.8426V29.2487C81.6403 29.8037 81.7487 30.2977 81.9655 30.7309C82.1823 31.1641 82.5008 31.5025 82.9208 31.7461C83.3409 31.9898 83.8491 32.1116 84.4453 32.1116C84.9467 32.1116 85.3668 32.0439 85.7056 31.9086C86.0579 31.7597 86.3764 31.5566 86.661 31.2994L87.9822 32.6801C87.5892 33.1675 87.0743 33.5329 86.4374 33.7766C85.814 34.0202 85.1094 34.1421 84.3234 34.1421Z" fill="black"/>
<path d="M72.519 33.9393V24.0509H74.7753V26.9139L74.4907 26.8936C74.5314 26.1491 74.6872 25.567 74.9583 25.1474C75.2293 24.7142 75.5816 24.4097 76.0152 24.2337C76.4489 24.0577 76.9232 23.9697 77.4381 23.9697H78.2512V26.2844H77.2552C76.4828 26.2844 75.8865 26.4604 75.4664 26.8124C75.0599 27.1643 74.8566 27.6787 74.8566 28.3555V33.9393H72.519Z" fill="black"/>
<path d="M59.9839 37.9999V24.0507H62.1792V26.4466L61.7117 25.9187C62.0911 25.2825 62.5925 24.7817 63.2158 24.4162C63.8528 24.0372 64.5574 23.8477 65.3298 23.8477C66.2242 23.8477 67.0237 24.0575 67.7284 24.4771C68.433 24.8967 68.9886 25.4856 69.3952 26.2436C69.8017 27.0016 70.005 27.8815 70.005 28.8832V29.0862C70.005 30.1015 69.8017 30.9881 69.3952 31.7461C68.9886 32.5042 68.433 33.093 67.7284 33.5126C67.0373 33.9323 66.2445 34.1421 65.3502 34.1421C64.6048 34.1421 63.9273 33.9729 63.3175 33.6345C62.7077 33.2825 62.2131 32.8087 61.8336 32.2131L62.3215 31.6649V37.9999H59.9839ZM64.9639 32.0913C65.4653 32.0913 65.9193 31.9695 66.3258 31.7258C66.7459 31.4822 67.0712 31.137 67.3015 30.6903C67.5454 30.2301 67.6674 29.6954 67.6674 29.0862V28.8832C67.6674 28.2605 67.5454 27.7326 67.3015 27.2994C67.0712 26.8527 66.7459 26.5143 66.3258 26.2842C65.9193 26.0406 65.4653 25.9187 64.9639 25.9187C64.4354 25.9187 63.9544 26.0406 63.5207 26.2842C63.1007 26.5279 62.7687 26.8798 62.5247 27.34C62.2944 27.8003 62.1792 28.3553 62.1792 29.005C62.1792 29.6412 62.2944 30.1895 62.5247 30.6497C62.7687 31.1099 63.1007 31.4686 63.5207 31.7258C63.9544 31.9695 64.4354 32.0913 64.9639 32.0913Z" fill="black"/>
<path d="M48.1755 33.9391L51.5498 29.0051L48.2772 24.0508H51.0213L53.1353 27.5026L55.2289 24.0508H57.9324L54.6598 28.9848L57.9934 33.9391H55.2086L53.054 30.5279L50.8993 33.9391H48.1755Z" fill="black"/>
<path d="M39.6169 33.9393C38.9258 33.9393 38.3567 33.7159 37.9095 33.2692C37.4759 32.8225 37.259 32.254 37.259 31.5636V22.1017C37.259 21.4114 37.4759 20.8428 37.9095 20.3961C38.3567 19.9494 38.9258 19.7261 39.6169 19.7261H46.5484V22.0002H40.4503C40.2471 22.0002 40.0709 22.0746 39.9218 22.2235C39.7863 22.3589 39.7186 22.5281 39.7186 22.7312V30.9342C39.7186 31.1372 39.7863 31.3132 39.9218 31.4621C40.0709 31.5975 40.2471 31.6652 40.4503 31.6652H46.5484V33.9393H39.6169ZM38.4583 27.8885V25.7159H46.1215V27.8885H38.4583Z" fill="black"/>
<path d="M114.154 13.2183L113.992 10.2741L118.951 4.93401H121.838L114.154 13.2183ZM112.874 14.8223V0H115.211V14.8223H112.874ZM119.114 14.8223L115.821 9.44162L117.63 7.87817L122 14.8223H119.114Z" fill="black"/>
<path d="M107.015 15.0254C106.026 15.0254 105.138 14.8156 104.352 14.3959C103.58 13.9628 102.97 13.3672 102.523 12.6091C102.076 11.8511 101.852 10.978 101.852 9.98984V9.76649C101.852 8.7648 102.076 7.88493 102.523 7.1269C102.984 6.36886 103.6 5.78003 104.373 5.3604C105.159 4.94077 106.039 4.73096 107.015 4.73096C107.747 4.73096 108.431 4.87986 109.068 5.17766C109.705 5.46192 110.22 5.86124 110.613 6.37563L109.19 7.81725C108.919 7.49238 108.594 7.25549 108.214 7.10659C107.848 6.95769 107.455 6.88324 107.035 6.88324C106.493 6.88324 106.005 7.00507 105.572 7.24872C105.152 7.47884 104.813 7.81048 104.556 8.24365C104.312 8.66327 104.19 9.17089 104.19 9.76649V9.98984C104.19 10.5719 104.312 11.0795 104.556 11.5127C104.813 11.9458 105.159 12.2843 105.592 12.5279C106.039 12.758 106.527 12.8731 107.056 12.8731C107.462 12.8731 107.848 12.8054 108.214 12.67C108.594 12.5211 108.939 12.291 109.251 11.9797L110.654 13.3807C110.261 13.8951 109.739 14.3012 109.088 14.599C108.438 14.8832 107.747 15.0254 107.015 15.0254Z" fill="black"/>
<path d="M97.4288 14.8223V11.4924L97.1442 10.6396V8.54822C97.1442 7.92554 96.968 7.47884 96.6157 7.20811C96.2769 6.92385 95.8026 6.78172 95.1928 6.78172C94.7185 6.78172 94.2104 6.87647 93.6683 7.06598C93.1263 7.25549 92.652 7.52622 92.2454 7.87817L91.1884 6.29441C91.6492 5.82064 92.2454 5.44162 92.9772 5.15735C93.7225 4.87309 94.5085 4.73096 95.3351 4.73096C96.1482 4.73096 96.8596 4.87309 97.4694 5.15735C98.0928 5.44162 98.5806 5.86124 98.9329 6.41624C99.2853 6.95769 99.4614 7.63451 99.4614 8.44669V11.6345C99.4614 12.176 99.4614 12.7107 99.4614 13.2386C99.475 13.753 99.4953 14.2809 99.5224 14.8223H97.4288ZM94.6033 15.0254C93.4786 15.0254 92.5774 14.7546 91.8999 14.2132C91.2223 13.6717 90.8835 12.9678 90.8835 12.1015C90.8835 11.5195 91.0394 10.9983 91.3511 10.5381C91.6627 10.0778 92.1167 9.71234 92.713 9.44162C93.3228 9.17089 94.0613 9.03552 94.9286 9.03552C96.1075 9.03552 96.9951 9.29948 97.5914 9.8274C98.2012 10.3418 98.5061 11.0254 98.5061 11.8782H97.8963C97.8963 12.8799 97.6253 13.6582 97.0832 14.2132C96.5412 14.7546 95.7145 15.0254 94.6033 15.0254ZM95.1928 13.2995C95.7891 13.2995 96.2634 13.1844 96.6157 12.9543C96.968 12.7107 97.1442 12.3858 97.1442 11.9797C97.1442 11.5871 96.968 11.2758 96.6157 11.0457C96.2634 10.802 95.7891 10.6802 95.1928 10.6802C94.6101 10.6802 94.1358 10.802 93.7699 11.0457C93.4176 11.2758 93.2415 11.5871 93.2415 11.9797C93.2415 12.3858 93.4176 12.7107 93.7699 12.9543C94.1358 13.1844 94.6101 13.2995 95.1928 13.2995Z" fill="black"/>
<path d="M84.0615 14.8221V4.93376H86.3178V7.7967L86.0332 7.7764C86.0739 7.0319 86.2297 6.44983 86.5007 6.0302C86.7718 5.59704 87.1241 5.29247 87.5577 5.1165C87.9914 4.94053 88.4657 4.85254 88.9806 4.85254H89.7937V7.16726H88.7977C88.0252 7.16726 87.429 7.34323 87.0089 7.69518C86.6024 8.04712 86.3991 8.56151 86.3991 9.23833V14.8221H84.0615Z" fill="black"/>
<path d="M77.1739 14.8226V1.66521H79.6945V14.8226H77.1739ZM73.1289 2.88349V0.609375H83.8005V2.88349H73.1289Z" fill="black"/>
<path d="M69.4166 15.0254C68.4274 15.0254 67.5534 14.8156 66.7945 14.3959C66.0492 13.9628 65.4665 13.3672 65.0464 12.6091C64.6263 11.8376 64.4163 10.9442 64.4163 9.92893V9.72588C64.4163 8.77833 64.6128 7.93231 65.0057 7.18781C65.3987 6.42977 65.9475 5.83417 66.6522 5.40101C67.3704 4.95431 68.197 4.73096 69.1321 4.73096C70.1349 4.73096 70.9818 4.97461 71.6729 5.46192C72.3776 5.93569 72.8925 6.61251 73.2178 7.49238C73.543 8.37224 73.6311 9.40778 73.482 10.599H66.1034V8.934H72.2421L71.2054 9.78679C71.3003 9.10998 71.2664 8.54145 71.1038 8.08121C70.9547 7.60744 70.7108 7.24872 70.372 7.00507C70.0332 6.74788 69.6267 6.61928 69.1524 6.61928C68.6239 6.61928 68.1767 6.75465 67.8108 7.02537C67.4585 7.2961 67.1875 7.66158 66.9978 8.12182C66.8216 8.58206 66.7335 9.11674 66.7335 9.72588V10.132C66.7335 10.687 66.8419 11.181 67.0587 11.6142C67.2756 12.0474 67.594 12.3858 68.0141 12.6294C68.4342 12.8731 68.9424 12.9949 69.5386 12.9949C70.04 12.9949 70.4601 12.9272 70.7989 12.7919C71.1512 12.643 71.4696 12.4399 71.7542 12.1827L73.0755 13.5634C72.6825 14.0508 72.1675 14.4162 71.5306 14.6599C70.9073 14.9035 70.2026 15.0254 69.4166 15.0254Z" fill="black"/>
<path d="M53.0864 14.8223V4.934H55.3427V7.65481H54.7126C54.8616 7.05921 55.0717 6.5719 55.3427 6.19289C55.6137 5.81387 55.9186 5.52283 56.2574 5.31979C56.6097 5.10321 56.9688 4.95431 57.3347 4.87309C57.7006 4.77833 58.0326 4.73096 58.3307 4.73096C59.4419 4.73096 60.3295 5.09644 60.9935 5.8274C61.6711 6.54483 62.0099 7.58036 62.0099 8.934V14.8223H59.6723V9.31979C59.6723 8.45346 59.4894 7.83079 59.1235 7.45177C58.7576 7.05921 58.2765 6.86294 57.6803 6.86294C57.2602 6.86294 56.874 6.95769 56.5217 7.1472C56.1829 7.33671 55.9118 7.62097 55.7086 7.99999C55.5189 8.36547 55.424 8.81894 55.424 9.3604V14.8223H53.0864Z" fill="black"/>
<path d="M43.6416 15.1064C42.3001 15.1064 41.1008 14.7951 40.0438 14.1724C38.9868 13.5498 38.1534 12.6902 37.5436 11.5937C36.9338 10.4973 36.6289 9.22488 36.6289 7.77648V7.61405C36.6289 6.16566 36.9338 4.9 37.5436 3.81709C38.1534 2.72065 38.9868 1.86785 40.0438 1.25872C41.1008 0.636044 42.3001 0.324707 43.6416 0.324707C44.9832 0.324707 46.1757 0.636044 47.2192 1.25872C48.2761 1.86785 49.1095 2.72065 49.7193 3.81709C50.3291 4.9 50.634 6.16566 50.634 7.61405V7.77648C50.634 9.22488 50.3291 10.4973 49.7193 11.5937C49.1095 12.6902 48.2761 13.5498 47.2192 14.1724C46.1757 14.7951 44.9832 15.1064 43.6416 15.1064ZM43.6416 12.6699C44.5089 12.6699 45.2746 12.4736 45.9386 12.0811C46.6026 11.6885 47.1243 11.1267 47.5037 10.3958C47.8832 9.65127 48.0729 8.77818 48.0729 7.77648V7.61405C48.0729 6.61236 47.8832 5.7528 47.5037 5.03537C47.1243 4.31794 46.6026 3.76295 45.9386 3.37039C45.2746 2.9643 44.5089 2.76126 43.6416 2.76126C42.7879 2.76126 42.0223 2.9643 41.3447 3.37039C40.6672 3.76295 40.1387 4.31794 39.7592 5.03537C39.3798 5.7528 39.1901 6.61236 39.1901 7.61405V7.77648C39.1901 8.77818 39.3798 9.65127 39.7592 10.3958C40.1387 11.1267 40.6672 11.6885 41.3447 12.0811C42.0223 12.4736 42.7879 12.6699 43.6416 12.6699Z" fill="black"/>
<mask id="mask1_215_2" style="mask-type:alpha" maskUnits="userSpaceOnUse" x="0" y="0" width="28" height="28">
<path d="M0 0.203125H27.6444V27.8173H0V0.203125Z" fill="#D9D9D9"/>
</mask>
<g mask="url(#mask1_215_2)">
<path d="M21.7446 15.9832C22.9495 16.6629 24.1805 17.3141 25.439 17.9401L19.7793 27.0909C19.4651 26.3592 19.0879 25.5345 18.648 24.6183C18.208 23.7021 17.7313 22.7907 17.2177 21.8855C16.7042 20.9788 16.1538 20.1178 15.5667 19.2978C14.9796 18.4794 14.3925 17.7888 13.8069 17.229C13.2412 17.7888 12.7169 18.4731 12.234 19.2821C11.7527 20.0894 11.3234 20.9473 10.9463 21.8524C10.5677 22.7576 10.2427 23.669 9.97136 24.5852C9.69849 25.5014 9.48847 26.3371 9.34284 27.0909L2.77252 19.9444C3.75669 19.148 4.7056 18.3012 5.61619 17.4056C6.52831 16.5115 7.38217 15.5685 8.17932 14.5766C6.96367 14.4473 5.73116 14.3338 4.48485 14.2376C3.23855 14.1398 1.98611 14.0704 0.727539 14.0263L4.46952 3.38698C5.18236 4.48607 6.05155 5.55363 7.07864 6.58807C8.10573 7.62409 9.14356 8.51819 10.1906 9.27353C10.0649 8.00097 9.86099 6.73473 9.57739 5.47321C9.29532 4.21169 8.96573 2.98802 8.58709 1.8022L18.4901 0.930176C17.903 2.22323 17.4431 3.62982 17.1073 5.14995C16.7716 6.67007 16.5202 8.13028 16.3531 9.53214C17.6011 8.70341 18.7744 7.76139 19.859 6.71738C20.9582 5.66244 21.9592 4.55073 22.8606 3.38698L26.9168 12.5062C25.4697 12.5503 24.0088 12.7001 22.531 12.9587C21.0532 13.2189 19.6015 13.5091 18.1758 13.8323C19.3501 14.5877 20.5397 15.3036 21.7446 15.9832Z" fill="black"/>
</g>
</g>
</svg>
